<svg id="Layer_1" data-name="Layer 1" xmlns="http://www.w3.org/2000/svg" xmlns:xlink="http://www.w3.org/1999/xlink" viewBox="0 0 150 150">
  <defs>
    <style>
      .cls-1 {
        fill: #5a6174;
      }

      .cls-2 {
        fill: none;
      }

      .cls-3 {
        fill: #7d8ba8;
      }

      .cls-4 {
        fill: #f2a374;
      }

      .cls-5 {
        fill: #7cc7c3;
      }

      .cls-6 {
        fill: #eeeae5;
      }

      .cls-7 {
        fill: #f39b99;
      }

      .cls-8 {
        clip-path: url(#clip-path);
      }

      .cls-9 {
        opacity: 0.15;
      }

      .cls-10 {
        clip-path: url(#clip-path-2);
      }
    </style>
    <clipPath id="clip-path">
      <path class="cls-1" d="M96.34,97.79c-.33,5.17-10,9-21.64,8.6s-20.79-5-20.46-10.12,9.89-12.1,21.51-11.69S96.66,92.62,96.34,97.79Z"/>
    </clipPath>
    <clipPath id="clip-path-2">
      <path class="cls-2" d="M125.54,58.38c-2.21-.78-8.6-.3-11.72,0a48.78,48.78,0,0,0-6.43-12.92,20.44,20.44,0,0,0,3.09-6.55c1.24-11.33-5.85-12.84-5.85-12.84s-2.51,6.48-4.35,9a4.72,4.72,0,0,1-1.89,1.52c-5.76-3.9-13.15-6.31-22.59-6.29C41.07,30.34,34.18,63,34.21,82.86s18.71,36,41.72,36a47.74,47.74,0,0,0,10.39-1.14c1.09,2.62,2.59,5.36,4.22,5.77A60.06,60.06,0,0,0,101.46,125c2.85.06,7.49-.84,7.88-3.56.31-2.2,2.93-10.62-1.08-16a33,33,0,0,0,9.29-22.7c0-2.22-.1-4.59-.3-7.06,2.42-1.69,9.94-7,12.31-9.79C132.4,62.57,128.51,59.44,125.54,58.38Z"/>
    </clipPath>
  </defs>
  <title>monster-03_sized</title>
  <g>
    <path class="cls-3" d="M111.62,58.56s10.54-1.23,13.51-.18,6.88,4.19,4,7.51-13.11,10.32-13.11,10.32Z"/>
    <path class="cls-3" d="M38,61.47s-10.54-1.23-13.51-.17-6.87,4.18-4,7.5S33.55,79.13,33.55,79.13Z"/>
    <path class="cls-1" d="M45.59,102.24c-9.48,4.24-5.56,16.47-5.17,19.2s5,3.62,7.9,3.56a60.16,60.16,0,0,0,10.93-1.56c3.26-.81,6-10.82,6-10.82S55.07,98,45.59,102.24Z"/>
    <path class="cls-1" d="M103.73,102.24c9.48,4.24,5.56,16.47,5.17,19.2s-5,3.62-7.9,3.56a60.16,60.16,0,0,1-10.93-1.56c-3.26-.81-6-10.82-6-10.82S94.24,98,103.73,102.24Z"/>
    <path class="cls-4" d="M42.42,47.11s-2.34-1.65-4.17-7.69C37,28.09,44.1,26.58,44.1,26.58s2.52,6.48,4.36,9,5.25,2.06,5.25,2.06Z"/>
    <path class="cls-4" d="M105.87,46.6S108.2,45,110,38.91c1.24-11.33-5.85-12.84-5.85-12.84s-2.53,6.48-4.36,9-5.25,2.06-5.25,2.06Z"/>
    <path class="cls-5" d="M117.12,82.74c0,19.88-18.63,36-41.69,36.07S33.65,102.75,33.62,82.86,40.5,30.34,75.29,30.29,117.09,62.85,117.12,82.74Z"/>
    <circle class="cls-6" cx="90.35" cy="64.62" r="10.73"/>
    <circle class="cls-7" cx="90.52" cy="64.53" r="6.56"/>
    <circle class="cls-6" cx="87.24" cy="61.98" r="1.46"/>
    <circle class="cls-6" cx="67.45" cy="68.32" r="5.32"/>
    <circle class="cls-7" cx="67.53" cy="68.27" r="3.25"/>
    <circle class="cls-6" cx="65.91" cy="67.01" r="0.72"/>
    <circle class="cls-6" cx="50.51" cy="57.57" r="5.5"/>
    <circle class="cls-7" cx="50.6" cy="57.52" r="3.36"/>
    <circle class="cls-6" cx="48.92" cy="56.22" r="0.75"/>
    <circle class="cls-6" cx="68.49" cy="47.14" r="10.73"/>
    <circle class="cls-7" cx="68.66" cy="47.04" r="6.56"/>
    <circle class="cls-6" cx="65.38" cy="44.49" r="1.46"/>
    <circle class="cls-6" cx="88.04" cy="45.91" r="5.5"/>
    <circle class="cls-7" cx="88.12" cy="45.87" r="3.36"/>
    <circle class="cls-6" cx="86.44" cy="44.56" r="0.75"/>
    <g>
      <path class="cls-1" d="M96.34,97.79c-.33,5.17-10,9-21.64,8.6s-20.79-5-20.46-10.12,9.89-12.1,21.51-11.69S96.66,92.62,96.34,97.79Z"/>
      <g class="cls-8">
        <path class="cls-6" d="M67.79,91.76l-5.3-3.31A.83.83,0,0,1,62.64,87l6.09-2.28a.84.84,0,0,1,1.13.9l-.8,5.59A.83.83,0,0,1,67.79,91.76Z"/>
        <path class="cls-6" d="M82.63,91.38l-.54-5.59a.84.84,0,0,1,1.14-.86l6,2.33a.84.84,0,0,1,.13,1.5L83.89,92A.83.83,0,0,1,82.63,91.38Z"/>
      </g>
    </g>
    <g class="cls-9">
      <g class="cls-10">
        <path d="M140.08,149.2H76.55s-6-37-6-72.06,6-58.12,6-58.12h63.53Z"/>
      </g>
    </g>
  </g>
</svg>
