<svg id="Layer_1" data-name="Layer 1" xmlns="http://www.w3.org/2000/svg" xmlns:xlink="http://www.w3.org/1999/xlink" viewBox="0 0 150 150">
  <defs>
    <style>
      .cls-1, .cls-3 {
        fill: none;
      }

      .cls-2 {
        fill: #e9c17b;
        stroke: #e9c17b;
        stroke-linejoin: round;
      }

      .cls-2, .cls-3 {
        stroke-linecap: round;
      }

      .cls-2, .cls-3, .cls-9 {
        stroke-width: 3px;
      }

      .cls-3 {
        stroke: #f39b99;
      }

      .cls-3, .cls-9 {
        stroke-miterlimit: 10;
      }

      .cls-4 {
        fill: #79909c;
      }

      .cls-5 {
        fill: #eeeae5;
      }

      .cls-6, .cls-9 {
        fill: #5a6174;
      }

      .cls-7 {
        clip-path: url(#clip-path);
      }

      .cls-8 {
        fill: #91cecb;
      }

      .cls-9 {
        stroke: #5a6174;
      }

      .cls-10 {
        fill: #7cc7c3;
      }

      .cls-11 {
        opacity: 0.15;
      }

      .cls-12 {
        clip-path: url(#clip-path-2);
      }
    </style>
    <clipPath id="clip-path">
      <rect class="cls-1" x="34.62" y="108.75" width="80.54" height="44.95"/>
    </clipPath>
    <clipPath id="clip-path-2">
      <path class="cls-1" d="M135.39,150.33H70.21a620.72,620.72,0,0,0,7.62-80.67C78.82,27.45,70.21-1,70.21-1h65.18Z"/>
    </clipPath>
  </defs>
  <title>monster-08_sized</title>
  <g>
    <g>
      <g>
        <path class="cls-2" d="M117.21,1.59s-6.57,6.16-7.28,10.18,5,16,2.61,21.24a13.83,13.83,0,0,1-7.9,6.85l-17-12s7.64-1.15,9.31-5.35,1-13.25,4.55-17.53S117.21,1.59,117.21,1.59Z"/>
        <line class="cls-3" x1="112.66" y1="33.09" x2="96.25" y2="22.9"/>
        <line class="cls-3" x1="111.73" y1="21.23" x2="98.38" y2="14.93"/>
        <line class="cls-3" x1="110.23" y1="10.06" x2="100.71" y2="6.43"/>
      </g>
      <g>
        <path class="cls-2" d="M33,1.59s6.56,6.16,7.28,10.18-5,16-2.61,21.24a13.83,13.83,0,0,0,7.89,6.85l17-12s-7.64-1.15-9.31-5.35-1-13.25-4.55-17.53S33,1.59,33,1.59Z"/>
        <line class="cls-3" x1="37.51" y1="33.09" x2="53.92" y2="22.9"/>
        <line class="cls-3" x1="38.44" y1="21.23" x2="51.79" y2="14.93"/>
        <line class="cls-3" x1="39.94" y1="10.06" x2="49.46" y2="6.43"/>
      </g>
      <path class="cls-4" d="M133.48,114,121.86,61.43c-1-4.66-12.32-37.25-46.41-38.45l-.53,0a10.7,10.7,0,0,0-7.18-2.91c.88.88,2.37,2.21,2.94,3l-1.08.08c-1.43-1.05-3.81-3.23-8.45-2.5a21.64,21.64,0,0,1,3.64,3.11l-.57.11c-1.64-.32-4.29-1.94-6.87-2.07,1.64,1.3,2.25,2,1.69,3.4-21.89,7-30.62,28.69-31.49,32.67L15.93,110.39c-1.07,4.85,1.74,9.71,6.26,10.86a7.79,7.79,0,0,0,1.95.25,8.58,8.58,0,0,0,8.2-7l1.42-6.41c.42,6.19,3.19,37.2,15.66,38.65,5,0,12.61-6.57,17.17-11a36.13,36.13,0,0,0,8.8,1.13,33.19,33.19,0,0,0,4.66-.33c3.92,4,13.36,13,19.19,13C113.1,148,115,109.86,115,109.86l-.2.13c.12-.24.23-.48.34-.72l2,8.89a8.58,8.58,0,0,0,8.2,7,7.79,7.79,0,0,0,2-.25C131.75,123.71,134.55,118.85,133.48,114Z"/>
      <circle class="cls-5" cx="59.31" cy="48.33" r="3.78"/>
      <circle class="cls-6" cx="59.31" cy="48.33" r="2.06"/>
      <circle class="cls-5" cx="87.78" cy="47.2" r="3.78"/>
      <circle class="cls-6" cx="87.78" cy="47.2" r="2.06"/>
      <g class="cls-7">
        <path class="cls-8" d="M133.85,114.37,122.24,61.8c-1-4.66-12.32-37.25-46.41-38.45S29,53.34,27.92,58.19L16.31,110.76c-1.07,4.85,1.73,9.72,6.26,10.87a8.19,8.19,0,0,0,1.95.24,8.57,8.57,0,0,0,8.19-7l1.42-6.42c.43,6.2,3.19,37.21,15.67,38.65,5,0,12.6-6.56,17.16-11a36.15,36.15,0,0,0,8.81,1.13,35,35,0,0,0,4.66-.33c3.91,4,13.36,13,19.19,13,13.86-1.61,15.73-39.73,15.73-39.73l-.2.14.33-.73,2,8.89a8.57,8.57,0,0,0,8.19,7,8.19,8.19,0,0,0,2-.24C132.12,124.09,134.92,119.22,133.85,114.37Z"/>
      </g>
      <ellipse class="cls-9" cx="74.71" cy="96.77" rx="40.46" ry="39.71"/>
      <path class="cls-5" d="M49.67,72.93l-3-1.25a1.68,1.68,0,0,1-.55-2.75l1.77-1.78a1.69,1.69,0,0,1,2.75.55l1.25,3A1.68,1.68,0,0,1,49.67,72.93Z"/>
      <path class="cls-5" d="M57.08,68.34l-3.3-2.53A2.14,2.14,0,0,1,54,62.26l2.76-1.6A2.14,2.14,0,0,1,60,62.24l.54,4.12A2.14,2.14,0,0,1,57.08,68.34Z"/>
      <path class="cls-5" d="M66.59,64.93l-2.5-4a2.44,2.44,0,0,1,1.68-3.69l3.57-.59a2.44,2.44,0,0,1,2.78,3L71,64.2A2.44,2.44,0,0,1,66.59,64.93Z"/>
      <path class="cls-5" d="M99.73,72.93l3-1.25a1.68,1.68,0,0,0,.55-2.75l-1.77-1.78a1.69,1.69,0,0,0-2.75.55l-1.25,3A1.68,1.68,0,0,0,99.73,72.93Z"/>
      <path class="cls-5" d="M92.32,68.34l3.3-2.53a2.14,2.14,0,0,0-.23-3.55l-2.76-1.6a2.14,2.14,0,0,0-3.19,1.58l-.54,4.12A2.14,2.14,0,0,0,92.32,68.34Z"/>
      <path class="cls-5" d="M82.7,65l2.61-4a2.43,2.43,0,0,0-1.56-3.74l-3.56-.69a2.44,2.44,0,0,0-2.86,2.88l.94,4.64A2.44,2.44,0,0,0,82.7,65Z"/>
      <path class="cls-10" d="M41.08,76.18a1.49,1.49,0,0,1-.85-.26,1.51,1.51,0,0,1-.39-2.08,42.39,42.39,0,0,1,69.65-.12,1.5,1.5,0,0,1-2.47,1.7,39.39,39.39,0,0,0-64.7.11A1.51,1.51,0,0,1,41.08,76.18Z"/>
    </g>
    <g class="cls-11">
      <g class="cls-12">
        <path d="M133.48,114,121.86,61.43c-.57-2.6-4.33-13.86-13.44-23.54A12.51,12.51,0,0,0,112.54,33c2.39-5.22-3.32-17.23-2.61-21.24s7.28-10.18,7.28-10.18-12.14-.93-15.7,3.35S98.63,18.28,97,22.47c-.77,1.94-2.81,3.22-4.79,4.05A47.5,47.5,0,0,0,75.45,23c-34.08-1.21-46.83,30-47.9,34.84L15.93,110.39c-1.07,4.85,1.74,9.71,6.26,10.86a7.79,7.79,0,0,0,1.95.25,8.58,8.58,0,0,0,8.2-7l1.42-6.41c.42,6.19,3.19,37.2,15.66,38.65,5,0,12.61-6.57,17.17-11a36.13,36.13,0,0,0,8.8,1.13,33.19,33.19,0,0,0,4.66-.33c3.92,4,13.36,13,19.19,13C113.1,148,115,109.86,115,109.86l-.2.13c.12-.24.23-.48.34-.72l2,8.89a8.58,8.58,0,0,0,8.2,7,7.79,7.79,0,0,0,2-.25C131.75,123.71,134.55,118.85,133.48,114Z"/>
      </g>
    </g>
  </g>
</svg>
