<svg id="Layer_1" data-name="Layer 1" xmlns="http://www.w3.org/2000/svg" xmlns:xlink="http://www.w3.org/1999/xlink" viewBox="0 0 150 150">
  <defs>
    <style>
      .cls-1, .cls-12 {
        fill: none;
      }

      .cls-2 {
        clip-path: url(#clip-path);
      }

      .cls-3 {
        opacity: 0.15;
      }

      .cls-4 {
        fill: #f2a374;
      }

      .cls-5 {
        fill: #7d8ba8;
        stroke: #7d8ba8;
      }

      .cls-12, .cls-5 {
        stroke-linecap: round;
        stroke-linejoin: round;
      }

      .cls-6 {
        fill: #5a6174;
      }

      .cls-7 {
        fill: #fcd28a;
      }

      .cls-8 {
        clip-path: url(#clip-path-2);
      }

      .cls-9 {
        opacity: 0.1;
      }

      .cls-10 {
        fill: #eeeae5;
      }

      .cls-11 {
        fill: #fff;
      }

      .cls-12 {
        stroke: #5a6174;
        stroke-width: 2px;
      }
    </style>
    <clipPath id="clip-path">
      <path class="cls-1" d="M-6.24,269.93C-6.24,234.07-39.71,205-81,205s-74.76,29.07-74.76,64.93c0,20.52,5,38.53,20.47,50.35.29,5.67,1.13,11.1,2.93,15.3a9.42,9.42,0,0,0,8.65,5.7,9.29,9.29,0,0,0,3.69-.77,9.39,9.39,0,0,0,5.58-10.07,96.12,96.12,0,0,0,10.8,2.47v6.69a9.4,9.4,0,0,0,9.4,9.4,9.4,9.4,0,0,0,9.4-9.4v-4.84c1.26.05,2.53.09,3.84.11q3.68,0,7.12-.06v4.79a9.4,9.4,0,0,0,9.4,9.4,9.4,9.4,0,0,0,9.4-9.4v-6.72a81.2,81.2,0,0,0,13-3.52,12.82,12.82,0,0,1-.69,2.23,9.39,9.39,0,0,0,4.94,12.34,9.28,9.28,0,0,0,3.69.76,9.4,9.4,0,0,0,8.65-5.7c2.46-5.76,3.14-13.83,3-21.68C-10.34,305.38-6.24,288.45-6.24,269.93Z"/>
    </clipPath>
    <clipPath id="clip-path-2">
      <path class="cls-1" d="M70.16-7s7,23,7,78.09c2.41,39.82-9.33,99.44-9.33,99.44l108.65-2.07L169.59-7Z"/>
    </clipPath>
  </defs>
  <title>monster-07_sized</title>
  <g class="cls-2">
    <path class="cls-3" d="M21.28,384.53l-113.14-.62s17.14-28.68,12.78-107.85S-108.38,143-108.38,143l129.66,8.42Z"/>
  </g>
  <g>
    <path class="cls-4" d="M45.71,31.41s-2.35-1.66-4.2-7.73c-1.25-11.4,5.89-12.91,5.89-12.91s2.54,6.51,4.38,9,5.28,2.07,5.28,2.07Z"/>
    <path class="cls-4" d="M103.23,29.49s2.35-1.66,4.2-7.74c1.25-11.39-5.89-12.91-5.89-12.91s-2.53,6.52-4.38,9S91.88,20,91.88,20Z"/>
    <path class="cls-5" d="M72.39,136.59c-34-4.9-49.65-4.9-54.83-40-2-25.71,6.94-39.88,14.74-52.52S62,19.21,64,17.31s-1.22-5.81-.52-5.78,6.14,1.87,6.14,1.87l-2.17-5S74.9,10.37,77,12.17s2.8,5.21,3.51,5.34.87.11,1.24-.35-1.15-5.91-.4-6.39c1.66-.34,10,7.5,10,7.5l.51-3.08,1.83,3a150,150,0,0,1,20.54,24.18c10,15,17.86,33.85,17.26,47.49C131.53,119.28,106.39,141.49,72.39,136.59Z"/>
    <path class="cls-6" d="M41.15,117.54a35.76,35.76,0,0,0-2.06,11.93c0,6.74,6.71,10.52,11,11.35a54.6,54.6,0,0,0,16.55,0c5-.83,8.15-15.39,8.15-15.39Z"/>
    <path class="cls-6" d="M106.74,120.7a35.7,35.7,0,0,1,.5,12.09c-.86,6.68-8,9.57-12.33,9.85a55,55,0,0,1-16.41-2.13c-4.85-1.47-6.11-16.31-6.11-16.31Z"/>
    <path class="cls-7" d="M115.71,71.42C122.27,98,124.55,135,73.53,134.6c-54.17-.39-45.15-43.37-38-63.3,0,0,11.53-6.9,37.75-7.28S115.71,71.42,115.71,71.42Z"/>
    <path class="cls-6" d="M74.26,135.53h-.73c-19.43-.14-32.67-5.76-39.36-16.7-5.52-9-6.47-21.93-2.73-37.29A107.76,107.76,0,0,1,38.78,61,.91.91,0,0,1,40,60.54a.92.92,0,0,1,.42,1.24c-.18.35-17.45,35.2-4.68,56.09,6.33,10.35,19,15.67,37.78,15.8,18.91.14,32.05-5.13,39-15.65,13.84-20.88-1-55.87-1.16-56.22a.93.93,0,0,1,.49-1.22.92.92,0,0,1,1.22.48,104.55,104.55,0,0,1,5.95,20.68c2.73,15.39,1,28.29-4.95,37.3C106.86,130,93.45,135.53,74.26,135.53Z"/>
    <g class="cls-8">
      <path class="cls-9" d="M114,42.27a138.58,138.58,0,0,0-10.37-13.5,18.71,18.71,0,0,0,3.54-7.1c1.25-11.39-5.88-12.91-5.88-12.91s-2.54,6.52-4.39,9a4.86,4.86,0,0,1-2.07,1.6c-.87-.85-1.38-1.31-1.38-1.31l-1.83-3-.51,3.08s-8.38-7.84-10-7.5c-.75.48.78,5.93.41,6.39s-.53.49-1.25.35-1.42-3.55-3.5-5.34-9.5-3.73-9.5-3.73l2.17,5S64,11.48,63.26,11.45s2.53,3.88.51,5.78c-.69.65-3.72,2.51-7.71,5.18l.73-.62s-3.43.45-5.28-2.07-4.38-9-4.38-9S40,12.2,41.24,23.6a19.21,19.21,0,0,0,3.49,7c-5,4-9.82,8.66-12.7,13.33C24.24,56.61,15.29,70.78,17.29,96.49c3,20.63,9.7,29.14,21.57,33.65.47,6.26,6.84,9.8,10.93,10.6a54.6,54.6,0,0,0,16.55,0c1.68-.28,3.16-2.12,4.37-4.43l1.41.2c1,.14,1.95.26,2.92.35.83,1.8,1.88,3.17,3.19,3.57a55,55,0,0,0,16.41,2.13c4.33-.28,11.47-3.17,12.34-9.85.08-.61.14-1.22.18-1.81,14.86-8.1,24.09-23.29,24.08-41.14C131.84,76.12,124,57.23,114,42.27Z"/>
    </g>
    <circle class="cls-10" cx="54.08" cy="48.85" r="5.58"/>
    <circle class="cls-6" cx="54.08" cy="48.85" r="3.04"/>
    <polygon class="cls-6" points="46.49 43.6 63.05 44.89 65.87 37.83 44.49 38.44 46.49 43.6"/>
    <circle class="cls-10" cx="93.52" cy="48.85" r="5.58"/>
    <circle class="cls-6" cx="93.52" cy="48.85" r="3.04"/>
    <polygon class="cls-6" points="102.72 45.11 85.23 45.91 82.46 38.78 104.97 40.01 102.72 45.11"/>
    <polygon class="cls-11" points="67.82 55.72 70 58.99 72.31 55.72 67.82 55.72"/>
    <polygon class="cls-11" points="77.19 55.72 79.37 58.99 81.68 55.72 77.19 55.72"/>
    <line class="cls-12" x1="81.33" y1="55.59" x2="68.2" y2="55.59"/>
  </g>
</svg>
