<svg id="Layer_1" data-name="Layer 1" xmlns="http://www.w3.org/2000/svg" xmlns:xlink="http://www.w3.org/1999/xlink" viewBox="0 0 150 150">
  <defs>
    <style>
      .cls-1, .cls-11, .cls-7 {
        fill: none;
      }

      .cls-2 {
        clip-path: url(#clip-path);
      }

      .cls-3, .cls-4 {
        opacity: 0.15;
      }

      .cls-5 {
        clip-path: url(#clip-path-2);
      }

      .cls-6, .cls-8 {
        fill: #5a6174;
      }

      .cls-6 {
        stroke: #5a6174;
        stroke-width: 2px;
      }

      .cls-11, .cls-6, .cls-7 {
        stroke-linecap: round;
      }

      .cls-11, .cls-6 {
        stroke-linejoin: round;
      }

      .cls-7 {
        stroke: #6ec6d8;
        stroke-miterlimit: 10;
        stroke-width: 3px;
      }

      .cls-9 {
        fill: #ee787a;
      }

      .cls-10 {
        fill: #fdd38b;
      }

      .cls-11 {
        stroke: #b55a5b;
        stroke-width: 5px;
      }

      .cls-12 {
        fill: #eeeae5;
      }

      .cls-13 {
        clip-path: url(#clip-path-3);
      }
    </style>
    <clipPath id="clip-path">
      <path class="cls-1" d="M149.76-89.07C149.76-124.93,116.29-154,75-154S.24-124.93.24-89.07c0,20.52,5,38.53,20.47,50.35.29,5.67,1.13,11.1,2.93,15.3a9.42,9.42,0,0,0,8.65,5.7A9.29,9.29,0,0,0,36-18.49a9.39,9.39,0,0,0,5.58-10.07,96.12,96.12,0,0,0,10.8,2.47v6.69a9.4,9.4,0,0,0,9.4,9.4,9.4,9.4,0,0,0,9.4-9.4v-4.84c1.26,0,2.53.09,3.84.11q3.68,0,7.12-.06v4.79a9.4,9.4,0,0,0,9.4,9.4,9.4,9.4,0,0,0,9.4-9.4v-6.72a81.2,81.2,0,0,0,13-3.52,12.82,12.82,0,0,1-.69,2.23,9.39,9.39,0,0,0,4.94,12.34,9.28,9.28,0,0,0,3.69.76,9.4,9.4,0,0,0,8.65-5.7c2.46-5.76,3.14-13.83,3-21.68C145.66-53.62,149.76-70.55,149.76-89.07Z"/>
    </clipPath>
    <clipPath id="clip-path-2">
      <path class="cls-1" d="M-25.1,66.18c-2.5-3-12.41-6.75-14.29-7.45-.33-10.34-1-20.63-2-29.95C-44,.52-71.47,0-86.06,0S-125.62-.16-130,27.43c-.81,7.39-1.87,19.75-2.34,33.54-3.51,1.37-10.52,4.32-12.57,6.8-2.76,3.34-5.69,10.4-1.27,13.83,2.8,2.19,9.42,4.91,13.88,6.61.63,14.35,2.41,27.86,6.21,36.84,6.48,20,16.73,26.18,25.38,24.76s7.33-18.25,7.33-18.25-.1-.69,8-.86,7.9,2.65,7.9,2.65-3.49,16.42,10.16,16.42S-53.19,137.63-46,128.13c3.68-4.89,5.89-21.15,6.59-40.87C-35.16,85.69-27,82.51-23.83,80-19.41,76.58-22.34,69.53-25.1,66.18Z"/>
    </clipPath>
    <clipPath id="clip-path-3">
      <rect class="cls-1" x="72.33" y="-12" width="80.99" height="170"/>
    </clipPath>
  </defs>
  <title>monster-06</title>
  <g class="cls-2">
    <path class="cls-3" d="M177.28,25.53,64.14,24.91S81.28-3.77,76.92-82.94,47.62-216,47.62-216l129.66,8.42Z"/>
  </g>
  <g class="cls-4">
    <g class="cls-5">
      <path d="M-85.18-27.44V76.9l-6.18,99.39s96.75-9.89,99-8.55S7.6-13,7.6-13Z"/>
    </g>
  </g>
  <g>
    <g>
      <g>
        <path class="cls-6" d="M130.19,6.31s-7.84,2.7-10,5.81-1.84,15.34-5.81,18.82a12.69,12.69,0,0,1-9.21,2.78L95.47,17.21s6.85,1.91,9.83-1,5.83-10.76,10.44-13S130.19,6.31,130.19,6.31Z"/>
        <line class="cls-7" x1="114.5" y1="31.06" x2="104.55" y2="16.32"/>
        <line class="cls-7" x1="118.18" y1="20.74" x2="109.34" y2="10.42"/>
        <line class="cls-7" x1="121.13" y1="10.79" x2="114.5" y2="4.16"/>
      </g>
      <g>
        <path class="cls-6" d="M20.67,5.2s7.84,2.7,10,5.81,1.84,15.35,5.81,18.82a12.72,12.72,0,0,0,9.21,2.79L55.39,16.1s-6.85,1.91-9.84-1S39.73,4.36,35.12,2.1,20.67,5.2,20.67,5.2Z"/>
        <line class="cls-7" x1="36.36" y1="29.95" x2="46.31" y2="15.21"/>
        <line class="cls-7" x1="32.68" y1="19.63" x2="41.52" y2="9.32"/>
        <line class="cls-7" x1="29.73" y1="9.68" x2="36.36" y2="3.05"/>
      </g>
      <path class="cls-8" d="M47.53,135.43a21,21,0,0,0-1.19,6.95c0,3.93,3.91,6.14,6.39,6.62a31.76,31.76,0,0,0,9.64,0c2.92-.48,4.76-9,4.76-9Z"/>
      <path class="cls-8" d="M102.78,135.43a21,21,0,0,1,1.19,6.95c0,3.93-3.91,6.14-6.39,6.62a31.76,31.76,0,0,1-9.64,0c-2.92-.48-4.76-9-4.76-9Z"/>
      <path class="cls-9" d="M111.53,17.05c-5,.56-11.24-1.29-11.24-1.29s6.08-4.23,5.34-4.6a29.19,29.19,0,0,1-12.29-.08c-.45-.24-.91-.47-1.37-.69,0-.07.07-.12.21-.15S97,7.66,95.87,6.92c-5.55,1-11.2-.93-16.16-.08a40.59,40.59,0,0,0-4.84-.29C57.14,6.55,42.4,18,39.34,33,37.85,37.85,35.28,45.68,32.86,50c3.32-1.47,5.9-6.14,5.9-6.14a25,25,0,0,1-5.16,12.4c.61.62,4-.81,5.16-1.3v.93c-.58,1.66-1.77,4.72-2.95,5.9-1.66,1.66,2.95,0,2.95,0v52.92c0,17.78,16.16,32.19,36.11,32.19S111,132.52,111,114.74v-76a29.63,29.63,0,0,0-6-17.82h.14S111.71,18,111.53,17.05Z"/>
      <path class="cls-10" d="M59.54,83.83,58,80.52a3.48,3.48,0,0,1,3-5l2.8-.14a3.48,3.48,0,0,1,3.46,4.64L66,83.5A3.49,3.49,0,0,1,59.54,83.83Z"/>
      <path class="cls-10" d="M86.34,82.89l-1-3.52A3.49,3.49,0,0,1,89.12,75l2.78.34a3.48,3.48,0,0,1,2.63,5.16l-1.8,3.19A3.48,3.48,0,0,1,86.34,82.89Z"/>
      <path class="cls-11" d="M39.86,79.51s12.33-4.24,35.55-4.24,35.2,4.24,35.2,4.24"/>
      <circle class="cls-12" cx="75.23" cy="48.66" r="18.42"/>
      <circle class="cls-8" cx="75.23" cy="48.66" r="10.03"/>
    </g>
    <g class="cls-4">
      <g class="cls-13">
        <path d="M115.74,2.76c-4.61,2.26-7.45,10.12-10.44,13a5,5,0,0,1-.62.5,40.74,40.74,0,0,1-4.39-1s6.08-4.24,5.34-4.61a29.24,29.24,0,0,1-12.29-.07c-.45-.24-.91-.47-1.37-.7,0-.06.07-.11.21-.15S97,7.21,95.87,6.48c-5.55,1-11.2-.93-16.16-.08a40.59,40.59,0,0,0-4.84-.29C57.14,6.11,42.4,17.5,39.34,32.52c-1.49,4.88-4.06,12.72-6.48,17.07,3.32-1.48,5.9-6.15,5.9-6.15A25,25,0,0,1,33.6,55.85c.61.61,4-.81,5.16-1.31v.94c-.58,1.65-1.77,4.71-2.95,5.9-1.66,1.65,2.95,0,2.95,0v52.91c0,17.78,16.16,32.2,36.11,32.2A40.14,40.14,0,0,0,85,145.19c.77,1.7,1.76,3.17,2.93,3.37a32.41,32.41,0,0,0,9.64,0c2.48-.49,6.39-2.7,6.39-6.62a20.92,20.92,0,0,0-1.19-6.95l-.33.07A30.08,30.08,0,0,0,111,114.29v-76a29.62,29.62,0,0,0-.54-5.6,11.14,11.14,0,0,0,4-2.22c4-3.47,3.7-15.71,5.81-18.82s10-5.81,10-5.81S120.34.51,115.74,2.76Z"/>
      </g>
    </g>
  </g>
</svg>
