<svg id="Layer_1" data-name="Layer 1" xmlns="http://www.w3.org/2000/svg" xmlns:xlink="http://www.w3.org/1999/xlink" viewBox="0 0 150 150">
  <defs>
    <style>
      .cls-1 {
        fill: none;
      }

      .cls-2 {
        fill: #5a6174;
      }

      .cls-3 {
        fill: #7d8ba8;
      }

      .cls-4 {
        clip-path: url(#clip-path);
      }

      .cls-5 {
        opacity: 0.15;
      }

      .cls-6 {
        fill: #7cc8c5;
      }

      .cls-7 {
        fill: #eeeae5;
      }

      .cls-8 {
        fill: #ee787a;
      }

      .cls-9 {
        clip-path: url(#clip-path-2);
      }
    </style>
    <clipPath id="clip-path">
      <path class="cls-1" d="M123,71.46c0-23-21.49-41.69-48-41.69S27,48.44,27,71.46c0,13.18,3.24,24.74,13.14,32.33A29.57,29.57,0,0,0,42,113.61a6,6,0,0,0,11.5-3.3,62.7,62.7,0,0,0,6.93,1.59v4.29a6,6,0,1,0,12.07,0v-3.1c.81,0,1.63,0,2.47.06,1.57,0,3.09,0,4.57,0v3.07a6,6,0,1,0,12.07,0v-4.31a51.5,51.5,0,0,0,8.34-2.26,8.34,8.34,0,0,1-.45,1.43A6,6,0,0,0,102.7,119a5.9,5.9,0,0,0,2.38.49,6,6,0,0,0,5.55-3.66c1.58-3.69,2-8.88,2-13.92C120.37,94.22,123,83.35,123,71.46Z"/>
    </clipPath>
    <clipPath id="clip-path-2">
      <path class="cls-2" d="M72.74,98.79c-1.06,4.19-8.66,6-17,4s-14.17-7-13.11-11.19S51.73,83.06,60,85.05,73.81,94.59,72.74,98.79Z"/>
    </clipPath>
  </defs>
  <title>monster-02_sized</title>
  <g>
    <path class="cls-3" d="M123,71.46c0-23-21.49-41.69-48-41.69S27,48.44,27,71.46c0,13.18,3.24,24.74,13.14,32.33A29.57,29.57,0,0,0,42,113.61a6,6,0,0,0,11.5-3.3,62.7,62.7,0,0,0,6.93,1.59v4.29a6,6,0,1,0,12.07,0v-3.1c.81,0,1.63,0,2.47.06,1.57,0,3.09,0,4.57,0v3.07a6,6,0,1,0,12.07,0v-4.31a51.5,51.5,0,0,0,8.34-2.26,8.34,8.34,0,0,1-.45,1.43A6,6,0,0,0,102.7,119a5.9,5.9,0,0,0,2.38.49,6,6,0,0,0,5.55-3.66c1.58-3.69,2-8.88,2-13.92C120.37,94.22,123,83.35,123,71.46Z"/>
    <g class="cls-4">
      <path class="cls-5" d="M140.67,145,68,144.64s11-18.41,8.2-69.24S57.42-10,57.42-10l83.25,5.4Z"/>
    </g>
    <circle class="cls-6" cx="88" cy="63.78" r="17.45"/>
    <circle class="cls-7" cx="88.05" cy="63.56" r="13.94"/>
    <circle class="cls-8" cx="88.05" cy="63.56" r="7.59"/>
    <g>
      <path class="cls-2" d="M72.74,98.79c-1.06,4.19-8.66,6-17,4s-14.17-7-13.11-11.19S51.73,83.06,60,85.05,73.81,94.59,72.74,98.79Z"/>
      <g class="cls-9">
        <path class="cls-7" d="M47,92l-3.13-1.75a1,1,0,0,1,0-1.77L47,86.76a1,1,0,0,1,1.51.89v3.48A1,1,0,0,1,47,92Z"/>
        <path class="cls-7" d="M52.66,89.29l-2.44-2.57A1,1,0,0,1,50.75,85l3.53-.75a1,1,0,0,1,1.17,1.31l-1.09,3.32A1,1,0,0,1,52.66,89.29Z"/>
        <path class="cls-7" d="M58.5,88.54l-1.06-3.33a1,1,0,0,1,1.19-1.3l3.52.78a1,1,0,0,1,.51,1.7L60.2,88.94A1,1,0,0,1,58.5,88.54Z"/>
        <path class="cls-7" d="M64,91l.38-3.47a1,1,0,0,1,1.59-.71l2.92,2a1,1,0,0,1-.18,1.76L65.37,92A1,1,0,0,1,64,91Z"/>
        <path class="cls-7" d="M68,95.42l1.62-3.12a1,1,0,0,1,1.74-.1l2,2.91a1,1,0,0,1-.78,1.59L69,96.9A1,1,0,0,1,68,95.42Z"/>
      </g>
    </g>
    <circle class="cls-7" cx="84.96" cy="59.8" r="1.27"/>
  </g>
</svg>
