<svg id="Layer_1" data-name="Layer 1" xmlns="http://www.w3.org/2000/svg" xmlns:xlink="http://www.w3.org/1999/xlink" viewBox="0 0 150 150">
  <defs>
    <style>
      .cls-1 {
        fill: none;
      }

      .cls-2 {
        fill: #7cc7c3;
      }

      .cls-3 {
        fill: #5a6174;
      }

      .cls-4 {
        fill: #eeeae5;
      }

      .cls-5 {
        fill: #798e9c;
      }

      .cls-6 {
        fill: #f2a374;
      }

      .cls-7 {
        opacity: 0.15;
      }

      .cls-8 {
        clip-path: url(#clip-path);
      }
    </style>
    <clipPath id="clip-path">
      <path class="cls-1" d="M124.52,67.71c-2.07-2.49-10.26-5.59-11.82-6.16-.27-8.55-.83-17-1.69-24.76C108.87,13.43,86.19,13,74.13,13s-32.71-.13-36.32,22.67C37.14,41.79,36.26,52,35.87,63.4,33,64.53,27.18,67,25.48,69c-2.28,2.77-4.7,8.6-1.05,11.44,2.32,1.8,7.79,4.05,11.48,5.46.52,11.87,2,23,5.13,30.45C46.4,132.88,54.87,138,62,136.84s6.06-15.09,6.06-15.09-.08-.57,6.64-.7,6.53,2.18,6.53,2.18-2.88,13.58,8.4,13.58,11.64-10,17.57-17.89c3-4,4.87-17.49,5.46-33.78,3.52-1.3,10.25-3.94,12.89-6C129.22,76.31,126.8,70.48,124.52,67.71Z"/>
    </clipPath>
  </defs>
  <title>monster-05_sized</title>
  <g>
    <path class="cls-2" d="M37.56,62.77S27.77,66.26,25.48,69s-4.7,8.6-1.05,11.44,15.13,6.79,15.13,6.79Z"/>
    <path class="cls-2" d="M112.44,61.46s9.79,3.49,12.08,6.25,4.7,8.6,1,11.44-15.13,6.79-15.13,6.79Z"/>
    <path class="cls-3" d="M62,136.84c7.16-1.17,6.06-15.09,6.06-15.09s-.08-.57,6.64-.7,6.53,2.18,6.53,2.18-2.88,13.58,8.4,13.58,11.64-10,17.57-17.89,7.22-51.37,3.79-82.13C108.87,13.43,86.19,13,74.13,13s-32.71-.13-36.32,22.67C36,51.89,32.83,97,41,116.37,46.4,132.88,54.87,138,62,136.84Z"/>
    <path class="cls-4" d="M40.15,54.9,38.8,62.82a7.08,7.08,0,0,0,8.64,8.07l6-1.45a7.08,7.08,0,0,0,4.07-11l-4.69-6.47A7.08,7.08,0,0,0,40.15,54.9Z"/>
    <path class="cls-4" d="M95.72,50.16,91.54,57a7.08,7.08,0,0,0,4.95,10.68l6.14,1a7.08,7.08,0,0,0,8-8.73l-2-7.79A7.08,7.08,0,0,0,95.72,50.16Z"/>
    <ellipse class="cls-4" cx="66.72" cy="55.44" rx="2.29" ry="2.33"/>
    <ellipse class="cls-4" cx="82.42" cy="55.44" rx="2.29" ry="2.33"/>
    <path class="cls-5" d="M112.66,61.57c1,25.31-1.29,50.32-4.21,55.52-1.09,2.61-7.52,19.72-18.8,19.72s-8.4-13.58-8.4-13.58.2-2.32-6.53-2.18-6.64.7-6.64.7,1.1,13.92-6.06,15.09-15.62-4-21-20.47c-5-11.76-5.76-33.52-5.22-52.45,0,0,21.92,0,38.46-.3S112.66,61.57,112.66,61.57Z"/>
    <ellipse class="cls-3" cx="66.73" cy="55.46" rx="1.3" ry="1.33"/>
    <ellipse class="cls-3" cx="82.52" cy="55.46" rx="1.3" ry="1.33"/>
    <path class="cls-6" d="M75,110c-14,0-32.48-2.42-33.87-7.56-2.8-7-4-23.6-3.45-39,0,0,21,0,36.77-.24s36.71-1.67,36.71-1.67c1,20.57-2.28,39.39-3.68,43S89,110,75,110Z"/>
    <g class="cls-7">
      <g class="cls-8">
        <path d="M74.85-9.68V76.57l-5.11,82.16s80-8.18,81.81-7.06,0-149.46,0-149.46Z"/>
      </g>
    </g>
  </g>
</svg>
