<svg id="Layer_1" data-name="Layer 1" xmlns="http://www.w3.org/2000/svg" xmlns:xlink="http://www.w3.org/1999/xlink" viewBox="0 0 150 150">
  <defs>
    <style>
      .cls-1, .cls-6 {
        fill: none;
      }

      .cls-2 {
        opacity: 0.15;
      }

      .cls-3 {
        clip-path: url(#clip-path);
      }

      .cls-4 {
        clip-path: url(#clip-path-2);
      }

      .cls-5 {
        fill: #e9c17b;
        stroke: #e9c17b;
        stroke-linejoin: round;
      }

      .cls-5, .cls-6 {
        stroke-linecap: round;
      }

      .cls-12, .cls-5, .cls-6 {
        stroke-width: 3px;
      }

      .cls-6 {
        stroke: #f39b99;
      }

      .cls-12, .cls-6 {
        stroke-miterlimit: 10;
      }

      .cls-7 {
        fill: #79909c;
      }

      .cls-8 {
        fill: #eeeae5;
      }

      .cls-12, .cls-9 {
        fill: #5a6174;
      }

      .cls-10 {
        clip-path: url(#clip-path-3);
      }

      .cls-11 {
        fill: #91cecb;
      }

      .cls-12 {
        stroke: #5a6174;
      }

      .cls-13 {
        fill: #7cc7c3;
      }

      .cls-14 {
        clip-path: url(#clip-path-4);
      }
    </style>
    <clipPath id="clip-path">
      <path class="cls-1" d="M-18.12-105c-3-1-11.54-.41-15.74,0a65.48,65.48,0,0,0-8.64-17.35,27.24,27.24,0,0,0,4.15-8.79c1.67-15.22-7.85-17.24-7.85-17.24s-3.38,8.7-5.84,12.06a6.36,6.36,0,0,1-2.55,2.05c-7.73-5.24-17.66-8.47-30.34-8.45-46.64.07-55.9,43.9-55.86,70.62s25.13,48.32,56,48.28a64.33,64.33,0,0,0,14-1.54c1.46,3.52,3.48,7.21,5.68,7.75a79.9,79.9,0,0,0,14.65,2.1c3.84.08,10.07-1.13,10.59-4.78.42-3,3.93-14.26-1.44-21.49a44.31,44.31,0,0,0,12.46-30.5c0-3-.12-6.16-.4-9.47C-26-84-15.9-91.17-12.72-94.89-8.9-99.35-14.13-103.56-18.12-105Z"/>
    </clipPath>
    <clipPath id="clip-path-2">
      <path class="cls-1" d="M111.93-86.73c-1.43-1.21-6.49-2.67-8.69-3.26-.49-11.22-1.21-18.85-1.21-18.85a24.64,24.64,0,0,0-2.57-11,58.38,58.38,0,0,0,9.07-19.35,10.18,10.18,0,0,0,7.08-9.68A10.17,10.17,0,0,0,105.45-159,10.16,10.16,0,0,0,95.3-148.85a10.18,10.18,0,0,0,6.84,9.6,52.24,52.24,0,0,1-6.43,13.91,24.65,24.65,0,0,0-18.4-8.22A24.71,24.71,0,0,0,52.6-108.84S51.55-98.67,51.34-71.5,52.6-39.39,52.6-39.39A24.71,24.71,0,0,0,77.31-14.67a24.53,24.53,0,0,0,13.11-3.77c.85,2.89,2.82,8.88,4.5,9.16a24.25,24.25,0,0,0,7.32,0c1.88-.37,4.85-2,4.85-5s1.43-16.7-5.19-19.79a3.56,3.56,0,0,0-.41-.17,24.73,24.73,0,0,0,.54-5.13S103.79-51,103.7-71.5c0-1.94,0-3.85-.06-5.71a55.52,55.52,0,0,0,9.13-3.05C115.71-81.87,113.77-85.16,111.93-86.73Z"/>
    </clipPath>
    <clipPath id="clip-path-3">
      <rect class="cls-1" x="35.62" y="108.75" width="80.54" height="44.95"/>
    </clipPath>
    <clipPath id="clip-path-4">
      <path class="cls-1" d="M136.39,150.33H71.21a620.72,620.72,0,0,0,7.62-80.67C79.82,27.45,71.21-1,71.21-1h65.18Z"/>
    </clipPath>
  </defs>
  <title>monster-08</title>
  <g class="cls-2">
    <g class="cls-3">
      <path d="M1.42,17H-83.91S-92-32.73-92-79.78s8.06-78.07,8.06-78.07H1.42Z"/>
    </g>
  </g>
  <g class="cls-2">
    <g class="cls-4">
      <path d="M124.43,4.75h-49s8.39-41,8.39-83.2-8.39-83.2-8.39-83.2h49Z"/>
    </g>
  </g>
  <g>
    <g>
      <g>
        <path class="cls-5" d="M118.21,1.59s-6.57,6.16-7.28,10.18,5,16,2.61,21.24a13.83,13.83,0,0,1-7.9,6.85l-17-12s7.64-1.15,9.31-5.35,1-13.25,4.55-17.53S118.21,1.59,118.21,1.59Z"/>
        <line class="cls-6" x1="113.66" y1="33.09" x2="97.25" y2="22.9"/>
        <line class="cls-6" x1="112.73" y1="21.23" x2="99.38" y2="14.93"/>
        <line class="cls-6" x1="111.23" y1="10.06" x2="101.71" y2="6.43"/>
      </g>
      <g>
        <path class="cls-5" d="M34,1.59s6.56,6.16,7.28,10.18-5,16-2.61,21.24a13.83,13.83,0,0,0,7.89,6.85l17-12s-7.64-1.15-9.31-5.35-1-13.25-4.55-17.53S34,1.59,34,1.59Z"/>
        <line class="cls-6" x1="38.51" y1="33.09" x2="54.92" y2="22.9"/>
        <line class="cls-6" x1="39.44" y1="21.23" x2="52.79" y2="14.93"/>
        <line class="cls-6" x1="40.94" y1="10.06" x2="50.46" y2="6.43"/>
      </g>
      <path class="cls-7" d="M134.48,114,122.86,61.43c-1-4.66-12.32-37.25-46.41-38.45l-.53,0a10.7,10.7,0,0,0-7.18-2.91c.88.88,2.37,2.21,2.94,3l-1.08.08c-1.43-1.05-3.81-3.23-8.45-2.5a21.64,21.64,0,0,1,3.64,3.11l-.57.11c-1.64-.32-4.29-1.94-6.87-2.07,1.64,1.3,2.25,2,1.69,3.4-21.89,7-30.62,28.69-31.49,32.67L16.93,110.39c-1.07,4.85,1.74,9.71,6.26,10.86a7.79,7.79,0,0,0,1.95.25,8.58,8.58,0,0,0,8.2-7l1.42-6.41c.42,6.19,3.19,37.2,15.66,38.65,5,0,12.61-6.57,17.17-11a36.13,36.13,0,0,0,8.8,1.13,33.19,33.19,0,0,0,4.66-.33c3.92,4,13.36,13,19.19,13C114.1,148,116,109.86,116,109.86l-.2.13c.12-.24.23-.48.34-.72l2,8.89a8.58,8.58,0,0,0,8.2,7,7.79,7.79,0,0,0,2-.25C132.75,123.71,135.55,118.85,134.48,114Z"/>
      <circle class="cls-8" cx="60.31" cy="48.33" r="3.78"/>
      <circle class="cls-9" cx="60.31" cy="48.33" r="2.06"/>
      <circle class="cls-8" cx="88.78" cy="47.2" r="3.78"/>
      <circle class="cls-9" cx="88.78" cy="47.2" r="2.06"/>
      <g class="cls-10">
        <path class="cls-11" d="M134.85,114.37,123.24,61.8c-1-4.66-12.32-37.25-46.41-38.45S30,53.34,28.92,58.19L17.31,110.76c-1.07,4.85,1.73,9.72,6.26,10.87a8.19,8.19,0,0,0,1.95.24,8.57,8.57,0,0,0,8.19-7l1.42-6.42c.43,6.2,3.19,37.21,15.67,38.65,5,0,12.6-6.56,17.16-11a36.15,36.15,0,0,0,8.81,1.13,35,35,0,0,0,4.66-.33c3.91,4,13.36,13,19.19,13,13.86-1.61,15.73-39.73,15.73-39.73l-.2.14.33-.73,2,8.89a8.57,8.57,0,0,0,8.19,7,8.19,8.19,0,0,0,2-.24C133.12,124.09,135.92,119.22,134.85,114.37Z"/>
      </g>
      <ellipse class="cls-12" cx="75.71" cy="96.77" rx="40.46" ry="39.71"/>
      <path class="cls-8" d="M50.67,72.93l-3-1.25a1.68,1.68,0,0,1-.55-2.75l1.77-1.78a1.69,1.69,0,0,1,2.75.55l1.25,3A1.68,1.68,0,0,1,50.67,72.93Z"/>
      <path class="cls-8" d="M58.08,68.34l-3.3-2.53A2.14,2.14,0,0,1,55,62.26l2.76-1.6A2.14,2.14,0,0,1,61,62.24l.54,4.12A2.14,2.14,0,0,1,58.08,68.34Z"/>
      <path class="cls-8" d="M67.59,64.93l-2.5-4a2.44,2.44,0,0,1,1.68-3.69l3.57-.59a2.44,2.44,0,0,1,2.78,3L72,64.2A2.44,2.44,0,0,1,67.59,64.93Z"/>
      <path class="cls-8" d="M100.73,72.93l3-1.25a1.68,1.68,0,0,0,.55-2.75l-1.77-1.78a1.69,1.69,0,0,0-2.75.55l-1.25,3A1.68,1.68,0,0,0,100.73,72.93Z"/>
      <path class="cls-8" d="M93.32,68.34l3.3-2.53a2.14,2.14,0,0,0-.23-3.55l-2.76-1.6a2.14,2.14,0,0,0-3.19,1.58l-.54,4.12A2.14,2.14,0,0,0,93.32,68.34Z"/>
      <path class="cls-8" d="M83.7,65l2.61-4a2.43,2.43,0,0,0-1.56-3.74l-3.56-.69a2.44,2.44,0,0,0-2.86,2.88l.94,4.64A2.44,2.44,0,0,0,83.7,65Z"/>
      <path class="cls-13" d="M42.08,76.18a1.49,1.49,0,0,1-.85-.26,1.51,1.51,0,0,1-.39-2.08,42.39,42.39,0,0,1,69.65-.12,1.5,1.5,0,0,1-2.47,1.7,39.39,39.39,0,0,0-64.7.11A1.51,1.51,0,0,1,42.08,76.18Z"/>
    </g>
    <g class="cls-2">
      <g class="cls-14">
        <path d="M134.48,114,122.86,61.43c-.57-2.6-4.33-13.86-13.44-23.54A12.51,12.51,0,0,0,113.54,33c2.39-5.22-3.32-17.23-2.61-21.24s7.28-10.18,7.28-10.18-12.14-.93-15.7,3.35S99.63,18.28,98,22.47c-.77,1.94-2.81,3.22-4.79,4.05A47.5,47.5,0,0,0,76.45,23c-34.08-1.21-46.83,30-47.9,34.84L16.93,110.39c-1.07,4.85,1.74,9.71,6.26,10.86a7.79,7.79,0,0,0,1.95.25,8.58,8.58,0,0,0,8.2-7l1.42-6.41c.42,6.19,3.19,37.2,15.66,38.65,5,0,12.61-6.57,17.17-11a36.13,36.13,0,0,0,8.8,1.13,33.19,33.19,0,0,0,4.66-.33c3.92,4,13.36,13,19.19,13C114.1,148,116,109.86,116,109.86l-.2.13c.12-.24.23-.48.34-.72l2,8.89a8.58,8.58,0,0,0,8.2,7,7.79,7.79,0,0,0,2-.25C132.75,123.71,135.55,118.85,134.48,114Z"/>
      </g>
    </g>
  </g>
</svg>
