<svg id="Layer_1" data-name="Layer 1" xmlns="http://www.w3.org/2000/svg" xmlns:xlink="http://www.w3.org/1999/xlink" viewBox="0 0 150 150">
  <defs>
    <style>
      .cls-1, .cls-10 {
        fill: none;
      }

      .cls-2 {
        opacity: 0.15;
      }

      .cls-3 {
        clip-path: url(#clip-path);
      }

      .cls-4 {
        fill: #5a6174;
      }

      .cls-5 {
        fill: #eeeae5;
      }

      .cls-6 {
        fill: #7cc7c3;
      }

      .cls-7 {
        fill: #ee787a;
      }

      .cls-8 {
        fill: #79909c;
      }

      .cls-9 {
        fill: #f2a374;
      }

      .cls-10 {
        stroke: #f39b99;
        stroke-linecap: round;
        stroke-linejoin: round;
        stroke-width: 5px;
      }

      .cls-11 {
        clip-path: url(#clip-path-2);
      }
    </style>
    <clipPath id="clip-path">
      <path class="cls-1" d="M-18.12,54c-3-1.05-11.54-.41-15.74,0A65.48,65.48,0,0,0-42.5,36.66a27.24,27.24,0,0,0,4.15-8.79c1.67-15.22-7.85-17.24-7.85-17.24s-3.38,8.7-5.84,12.06a6.36,6.36,0,0,1-2.55,2c-7.73-5.24-17.66-8.47-30.34-8.45-46.64.07-55.9,43.9-55.86,70.62s25.13,48.32,56,48.28a64.33,64.33,0,0,0,14-1.54c1.46,3.52,3.48,7.21,5.68,7.75a79.9,79.9,0,0,0,14.65,2.1c3.84.08,10.07-1.13,10.59-4.78.42-3,3.93-14.26-1.44-21.49a44.31,44.31,0,0,0,12.46-30.5c0-3-.12-6.16-.4-9.47C-26,75-15.9,67.83-12.72,64.11-8.9,59.65-14.13,55.44-18.12,54Z"/>
    </clipPath>
    <clipPath id="clip-path-2">
      <path class="cls-1" d="M111.93,72.27c-1.43-1.21-6.49-2.67-8.69-3.26C102.75,57.79,102,50.16,102,50.16a24.64,24.64,0,0,0-2.57-11,58.38,58.38,0,0,0,9.07-19.35,10.16,10.16,0,1,0-6.39-.08,52.24,52.24,0,0,1-6.43,13.91A24.71,24.71,0,0,0,52.6,50.16S51.55,60.33,51.34,87.5s1.26,32.11,1.26,32.11a24.7,24.7,0,0,0,37.82,21c.85,2.89,2.82,8.88,4.5,9.16a24.25,24.25,0,0,0,7.32,0c1.88-.37,4.85-2,4.85-5s1.43-16.7-5.19-19.79a3.56,3.56,0,0,0-.41-.17,24.73,24.73,0,0,0,.54-5.13S103.79,108,103.7,87.5c0-1.94,0-3.85-.06-5.71a55.52,55.52,0,0,0,9.13-3.05C115.71,77.13,113.77,73.84,111.93,72.27Z"/>
    </clipPath>
  </defs>
  <title>monster-04</title>
  <g class="cls-2">
    <g class="cls-3">
      <path d="M1.42,176H-83.91S-92,126.27-92,79.22s8.06-78.07,8.06-78.07H1.42Z"/>
    </g>
  </g>
  <g>
    <path class="cls-4" d="M95.39,42.62a3.08,3.08,0,0,1-2.47-4.95c10.14-13.42,10.42-24.32,10.42-24.43a3.09,3.09,0,0,1,6.18,0c0,.52-.2,12.92-11.67,28.1A3.05,3.05,0,0,1,95.39,42.62Z"/>
    <path class="cls-4" d="M55.5,45.71A3.07,3.07,0,0,1,53,44.48C41.56,29.3,41.36,16.9,41.36,16.38a3.09,3.09,0,0,1,3.07-3.1h0a3.09,3.09,0,0,1,3.09,3.06c0,.18.32,11.05,10.42,24.42a3.08,3.08,0,0,1-2.46,5Z"/>
    <g>
      <circle class="cls-5" cx="44.55" cy="11.48" r="8.39"/>
      <path class="cls-6" d="M44.55,21.63A10.16,10.16,0,1,1,54.7,11.48,10.17,10.17,0,0,1,44.55,21.63Zm0-16.77a6.62,6.62,0,1,0,6.62,6.62A6.62,6.62,0,0,0,44.55,4.86Z"/>
    </g>
    <path class="cls-7" d="M52.93,124.91c-6.62,3.09-5.19,16.81-5.19,19.79s3,4.65,4.85,5a24.31,24.31,0,0,0,7.33,0c2.21-.37,4.93-10.69,4.93-10.69S59.55,121.82,52.93,124.91Z"/>
    <path class="cls-6" d="M52.65,70.91s-7.88,2-9.72,3.53-3.79,4.86-.85,6.47,12.18,3.83,12.18,3.83Z"/>
    <path class="cls-6" d="M102.21,68.74s7.88,2,9.72,3.53,3.78,4.86.84,6.47-12.17,3.83-12.17,3.83Z"/>
    <path class="cls-7" d="M101.9,124.91c6.62,3.09,5.19,16.81,5.19,19.79s-3,4.65-4.85,5a24.25,24.25,0,0,1-7.32,0C92.7,149.35,90,139,90,139S95.28,121.82,101.9,124.91Z"/>
    <path class="cls-8" d="M77.31,144.33A24.71,24.71,0,0,1,52.6,119.61s-1.47-5-1.26-32.11S52.6,50.16,52.6,50.16a24.72,24.72,0,1,1,49.43,0S103.61,67,103.7,87.5,102,119.61,102,119.61A24.72,24.72,0,0,1,77.31,144.33Z"/>
    <path class="cls-9" d="M77.65,133.73a13.24,13.24,0,0,1-13.24-13.24V65.32a13.24,13.24,0,0,1,26.48,0v55.17A13.24,13.24,0,0,1,77.65,133.73Z"/>
    <circle class="cls-4" cx="46.13" cy="11.24" r="3.8"/>
    <g>
      <circle class="cls-5" cx="105.45" cy="10.15" r="8.39"/>
      <path class="cls-6" d="M105.45,20.3a10.15,10.15,0,1,1,10.16-10.15A10.16,10.16,0,0,1,105.45,20.3Zm0-16.77a6.62,6.62,0,1,0,6.62,6.62A6.63,6.63,0,0,0,105.45,3.53Z"/>
    </g>
    <circle class="cls-4" cx="103.51" cy="10.36" r="3.8"/>
    <line class="cls-10" x1="65.95" y1="71.5" x2="89.34" y2="71.5"/>
    <line class="cls-10" x1="65.95" y1="83.2" x2="89.34" y2="83.2"/>
    <line class="cls-10" x1="65.95" y1="95.11" x2="89.34" y2="95.11"/>
    <line class="cls-10" x1="65.95" y1="106.59" x2="89.34" y2="106.59"/>
    <line class="cls-10" x1="66.39" y1="118.07" x2="89.79" y2="118.07"/>
    <g class="cls-2">
      <g class="cls-11">
        <path d="M124.43,163.75h-49s8.39-41,8.39-83.2-8.39-83.2-8.39-83.2h49Z"/>
      </g>
    </g>
  </g>
</svg>
