<svg id="Layer_1" data-name="Layer 1" xmlns="http://www.w3.org/2000/svg" xmlns:xlink="http://www.w3.org/1999/xlink" viewBox="0 0 150 150">
  <defs>
    <style>
      .cls-1 {
        fill: none;
      }

      .cls-2 {
        clip-path: url(#clip-path);
      }

      .cls-3, .cls-9 {
        opacity: 0.15;
      }

      .cls-4 {
        fill: #7cc7c3;
      }

      .cls-5 {
        fill: #5a6174;
      }

      .cls-6 {
        fill: #eeeae5;
      }

      .cls-7 {
        fill: #798e9c;
      }

      .cls-8 {
        fill: #f2a374;
      }

      .cls-10 {
        clip-path: url(#clip-path-2);
      }
    </style>
    <clipPath id="clip-path">
      <path class="cls-1" d="M145.53-30.15l-5.59-69.95c0-32-29-57.9-64.87-57.9s-64.86,25.92-64.86,57.9L3.75-26.68A8.77,8.77,0,0,0,.91-20.31C.91-15.17,5.58-11,11.34-11s10.42-4.17,10.42-9.31c0-.13,0-.26,0-.4h.05a5.39,5.39,0,0,1,5.59-4.61A5.46,5.46,0,0,1,32.93-21H33c0,.24,0,.48,0,.72C33-15.17,37.66-11,43.42-11s10.42-4.17,10.42-9.31a8.2,8.2,0,0,0-.11-1.32h.32a5.56,5.56,0,0,1,5.41-3.68,5.6,5.6,0,0,1,5.3,3.37h.49a8.26,8.26,0,0,0-.18,1.65c0,5.14,4.67,9.31,10.43,9.31s10.43-4.17,10.43-9.31a8.36,8.36,0,0,0-.32-2.24H86a5.63,5.63,0,0,1,5.85-4.88c3.24,0,5.87,2.35,5.87,5.24a4.79,4.79,0,0,1-.5,2.12c.13,5,4.74,9.08,10.41,9.08S118-15.17,118-20.31a8.31,8.31,0,0,0-.63-3.15l.75,0a5.5,5.5,0,0,1,5.49-4A5.57,5.57,0,0,1,129-23.8h.33a8.58,8.58,0,0,0-.12,1.35c0,5.15,4.67,9.31,10.42,9.31s10.43-4.16,10.43-9.31A9.08,9.08,0,0,0,145.53-30.15Z"/>
    </clipPath>
    <clipPath id="clip-path-2">
      <path class="cls-1" d="M134.9,66.18c-2.5-3-12.41-6.75-14.29-7.45-.33-10.34-1-20.63-2-29.95C116,.52,88.53,0,73.94,0S34.38-.16,30,27.43C29.2,34.82,28.14,47.18,27.67,61c-3.51,1.37-10.52,4.32-12.57,6.8-2.76,3.34-5.69,10.4-1.27,13.83,2.8,2.19,9.42,4.91,13.88,6.61.63,14.35,2.41,27.86,6.21,36.84,6.48,20,16.73,26.18,25.38,24.76s7.33-18.25,7.33-18.25-.1-.69,8-.86,7.9,2.65,7.9,2.65-3.49,16.42,10.16,16.42,14.09-12.14,21.26-21.64c3.68-4.89,5.89-21.15,6.59-40.87,4.27-1.57,12.41-4.75,15.6-7.24C140.59,76.58,137.66,69.53,134.9,66.18Z"/>
    </clipPath>
  </defs>
  <title>monster-05</title>
  <g class="cls-2">
    <path class="cls-3" d="M155.11,17.7H62.57S75.12-15.78,72.08-84.24s-9.51-98.3-9.51-98.3h92.54Z"/>
  </g>
  <g>
    <path class="cls-4" d="M29.71,60.2S17.87,64.43,15.1,67.77,9.41,78.17,13.83,81.6s18.3,8.22,18.3,8.22Z"/>
    <path class="cls-4" d="M120.29,58.62s11.84,4.22,14.61,7.56,5.69,10.4,1.27,13.84-18.3,8.22-18.3,8.22Z"/>
    <path class="cls-5" d="M59.3,149.81c8.65-1.42,7.33-18.25,7.33-18.25s-.1-.69,8-.86,7.9,2.65,7.9,2.65-3.49,16.42,10.16,16.42,14.09-12.14,21.26-21.64,8.73-62.15,4.58-99.35C116,.52,88.53,0,73.94,0S34.38-.16,30,27.43c-2.16,19.62-6,74.12,3.91,97.62C40.4,145,50.65,151.23,59.3,149.81Z"/>
    <path class="cls-6" d="M33.44,47.21,30.83,62.49a7.08,7.08,0,0,0,8.64,8.07l11.66-2.81a7.08,7.08,0,0,0,4.07-11L46.14,44.24A7.08,7.08,0,0,0,33.44,47.21Z"/>
    <path class="cls-6" d="M101.9,41.94,93.85,55.11a7.08,7.08,0,0,0,5,10.68l11.85,1.85a7.08,7.08,0,0,0,7.95-8.73l-3.8-15A7.08,7.08,0,0,0,101.9,41.94Z"/>
    <ellipse class="cls-6" cx="64.98" cy="51.34" rx="2.77" ry="2.82"/>
    <ellipse class="cls-6" cx="83.97" cy="51.34" rx="2.77" ry="2.82"/>
    <path class="cls-7" d="M120.56,58.76c1.22,30.61-1.56,60.86-5.09,67.16-1.33,3.15-9.11,23.85-22.75,23.85s-10.16-16.42-10.16-16.42.24-2.81-7.9-2.65-8,.86-8,.86S68,148.39,59.3,149.81,40.4,145,33.92,125.05c-6-14.23-7-40.55-6.31-63.46,0,0,26.51.06,46.52-.35S120.56,58.76,120.56,58.76Z"/>
    <ellipse class="cls-5" cx="65" cy="51.36" rx="1.57" ry="1.6"/>
    <ellipse class="cls-5" cx="84.1" cy="51.36" rx="1.57" ry="1.6"/>
    <path class="cls-8" d="M75.05,117.37c-16.9,0-39.29-2.92-41-9.14-3.38-8.4-4.8-28.55-4.17-47.17,0,0,25.35,0,44.49-.29s44.4-2,44.4-2c1.16,24.88-2.76,47.65-4.45,52S92,117.37,75.05,117.37Z"/>
    <g class="cls-9">
      <g class="cls-10">
        <path d="M74.82-27.44V76.9l-6.18,99.39s96.75-9.89,99-8.55S167.6-13,167.6-13Z"/>
      </g>
    </g>
  </g>
</svg>
