<svg id="Layer_1" data-name="Layer 1" xmlns="http://www.w3.org/2000/svg" xmlns:xlink="http://www.w3.org/1999/xlink" viewBox="0 0 150 150">
  <defs>
    <style>
      .cls-1, .cls-5, .cls-9 {
        fill: none;
      }

      .cls-2 {
        clip-path: url(#clip-path);
      }

      .cls-11, .cls-3 {
        opacity: 0.15;
      }

      .cls-4, .cls-6 {
        fill: #5a6174;
      }

      .cls-4 {
        stroke: #5a6174;
        stroke-width: 2px;
      }

      .cls-4, .cls-5, .cls-9 {
        stroke-linecap: round;
      }

      .cls-4, .cls-9 {
        stroke-linejoin: round;
      }

      .cls-5 {
        stroke: #6ec6d8;
        stroke-miterlimit: 10;
        stroke-width: 3px;
      }

      .cls-7 {
        fill: #ee787a;
      }

      .cls-8 {
        fill: #fdd38b;
      }

      .cls-9 {
        stroke: #b55a5b;
        stroke-width: 4px;
      }

      .cls-10 {
        fill: #eeeae5;
      }

      .cls-12 {
        clip-path: url(#clip-path-2);
      }
    </style>
    <clipPath id="clip-path">
      <path class="cls-1" d="M149.76,269.93C149.76,234.07,116.29,205,75,205S.24,234.07.24,269.93c0,20.52,5,38.53,20.47,50.35.29,5.67,1.13,11.1,2.93,15.3a9.42,9.42,0,0,0,8.65,5.7,9.29,9.29,0,0,0,3.69-.77,9.39,9.39,0,0,0,5.58-10.07,96.12,96.12,0,0,0,10.8,2.47v6.69a9.4,9.4,0,0,0,18.8,0v-4.84c1.26.05,2.53.09,3.84.11q3.68,0,7.12-.06v4.79a9.4,9.4,0,0,0,18.8,0v-6.72a81.2,81.2,0,0,0,13-3.52,12.82,12.82,0,0,1-.69,2.23,9.39,9.39,0,0,0,4.94,12.34,9.28,9.28,0,0,0,3.69.76,9.4,9.4,0,0,0,8.65-5.7c2.46-5.76,3.14-13.83,3-21.68C145.66,305.38,149.76,288.45,149.76,269.93Z"/>
    </clipPath>
    <clipPath id="clip-path-2">
      <rect class="cls-1" x="74" y="2" width="67.96" height="146"/>
    </clipPath>
  </defs>
  <title>monster-06_sized</title>
  <g class="cls-2">
    <path class="cls-3" d="M177.28,384.53l-113.14-.62s17.14-28.68,12.78-107.85S47.62,143,47.62,143l129.66,8.42Z"/>
  </g>
  <g>
    <g>
      <g>
        <path class="cls-4" d="M122.09,17.72s-6.73,2.32-8.55,5-1.57,13.18-5,16.17a10.94,10.94,0,0,1-7.91,2.39L92.27,27.08s5.89,1.65,8.45-.84,5-9.24,9-11.18S122.09,17.72,122.09,17.72Z"/>
        <line class="cls-5" x1="108.61" y1="38.98" x2="100.07" y2="26.32"/>
        <line class="cls-5" x1="111.78" y1="30.12" x2="104.18" y2="21.26"/>
        <line class="cls-5" x1="114.31" y1="21.57" x2="108.61" y2="15.88"/>
      </g>
      <g>
        <path class="cls-4" d="M28,16.77s6.73,2.32,8.54,5,1.58,13.18,5,16.17a11,11,0,0,0,7.91,2.39l8.37-14.18s-5.88,1.64-8.44-.85-5-9.24-9-11.18S28,16.77,28,16.77Z"/>
        <line class="cls-5" x1="41.51" y1="38.03" x2="50.06" y2="25.37"/>
        <line class="cls-5" x1="38.35" y1="29.17" x2="45.94" y2="20.31"/>
        <line class="cls-5" x1="35.82" y1="20.62" x2="41.51" y2="14.93"/>
      </g>
      <path class="cls-6" d="M51.11,128.62a17.89,17.89,0,0,0-1,6c0,3.37,3.36,5.26,5.49,5.68a27.33,27.33,0,0,0,8.28,0c2.5-.42,4.08-7.7,4.08-7.7Z"/>
      <path class="cls-6" d="M98.55,128.62a17.89,17.89,0,0,1,1,6c0,3.37-3.36,5.26-5.49,5.68a27.33,27.33,0,0,1-8.28,0c-2.51-.42-4.09-7.7-4.09-7.7Z"/>
      <path class="cls-7" d="M106.06,27c-4.27.48-9.65-1.11-9.65-1.11s5.22-3.63,4.59-3.95a25.06,25.06,0,0,1-10.56-.07c-.38-.2-.77-.4-1.17-.59,0-.06.06-.1.18-.13s4.12-2.22,3.17-2.85c-4.76.84-9.62-.8-13.88-.07a35.61,35.61,0,0,0-4.16-.25c-15.23,0-27.89,9.79-30.51,22.69-1.28,4.19-3.49,10.92-5.56,14.65C41.35,54,43.57,50,43.57,50a21.47,21.47,0,0,1-4.43,10.65c.52.53,3.45-.69,4.43-1.12v.8c-.5,1.42-1.52,4-2.53,5.07-1.43,1.42,2.53,0,2.53,0v45.44c0,15.28,13.88,27.66,31,27.66s31-12.38,31-27.66V45.59a25.48,25.48,0,0,0-5.18-15.31h.12S106.22,27.74,106.06,27Z"/>
      <path class="cls-8" d="M60.91,83.23l-.52-1.1a3.49,3.49,0,0,1,3-5l.93-.05a3.49,3.49,0,0,1,3.46,4.65l-.41,1.15A3.49,3.49,0,0,1,60.91,83.23Z"/>
      <path class="cls-8" d="M84.11,82.36l-.33-1.18a3.49,3.49,0,0,1,3.77-4.4l.93.11a3.48,3.48,0,0,1,2.62,5.17l-.6,1.06A3.48,3.48,0,0,1,84.11,82.36Z"/>
      <path class="cls-9" d="M44.52,80.59S55.1,77,75.05,77s30.22,3.64,30.22,3.64"/>
      <circle class="cls-10" cx="74.9" cy="54.1" r="15.82"/>
      <circle class="cls-6" cx="74.9" cy="54.1" r="8.62"/>
    </g>
    <g class="cls-11">
      <g class="cls-12">
        <path d="M110.42,14.68c-3.86,1.94-6.25,8.69-8.75,11.18a4.33,4.33,0,0,1-.53.43,31.7,31.7,0,0,1-3.68-.83s5.1-3.64,4.48-3.95a23.9,23.9,0,0,1-10.31-.07c-.38-.2-.76-.4-1.15-.59,0-.06.06-.1.18-.13s4-2.22,3.09-2.85c-4.65.84-9.4-.8-13.56-.07a34,34,0,0,0-4.06-.25c-14.88,0-27.25,9.79-29.82,22.69-1.24,4.19-3.4,10.92-5.43,14.65,2.78-1.26,4.95-5.27,4.95-5.27A21.74,21.74,0,0,1,41.5,60.27c.51.53,3.38-.7,4.33-1.12V60c-.49,1.42-1.48,4-2.48,5.07-1.39,1.42,2.48,0,2.48,0v45.44c0,15.27,13.56,27.65,30.3,27.65A33.09,33.09,0,0,0,84.64,137c.64,1.46,1.48,2.72,2.45,2.89a26.16,26.16,0,0,0,8.1,0c2.08-.42,5.36-2.31,5.36-5.68a18.36,18.36,0,0,0-1-6l-.28.06a26.15,26.15,0,0,0,7.16-17.84V45.2a25.36,25.36,0,0,0-.47-4.8,9.39,9.39,0,0,0,3.36-1.9c3.34-3,3.11-13.5,4.88-16.17s8.35-5,8.35-5S114.28,12.74,110.42,14.68Z"/>
      </g>
    </g>
  </g>
</svg>
