<svg id="Layer_1" data-name="Layer 1" xmlns="http://www.w3.org/2000/svg" xmlns:xlink="http://www.w3.org/1999/xlink" viewBox="0 0 150 150">
  <defs>
    <style>
      .cls-1 {
        fill: none;
      }

      .cls-2 {
        fill: #5a6174;
      }

      .cls-3 {
        fill: #7d8ba8;
      }

      .cls-4 {
        clip-path: url(#clip-path);
      }

      .cls-10, .cls-5 {
        opacity: 0.15;
      }

      .cls-6 {
        fill: #7cc8c5;
      }

      .cls-7 {
        fill: #eeeae5;
      }

      .cls-8 {
        fill: #ee787a;
      }

      .cls-9 {
        clip-path: url(#clip-path-2);
      }

      .cls-11 {
        clip-path: url(#clip-path-3);
      }
    </style>
    <clipPath id="clip-path">
      <path class="cls-1" d="M149.76,69.93C149.76,34.07,116.29,5,75,5S.24,34.07.24,69.93c0,20.52,5,38.53,20.47,50.35.29,5.67,1.13,11.1,2.93,15.3a9.42,9.42,0,0,0,8.65,5.7,9.29,9.29,0,0,0,3.69-.77,9.39,9.39,0,0,0,5.58-10.07,96.12,96.12,0,0,0,10.8,2.47v6.69a9.4,9.4,0,1,0,18.8,0v-4.84c1.26.05,2.53.09,3.84.11q3.68,0,7.12-.06v4.79a9.4,9.4,0,0,0,18.8,0v-6.72a81.2,81.2,0,0,0,13-3.52,12.82,12.82,0,0,1-.69,2.23,9.39,9.39,0,0,0,4.94,12.34,9.28,9.28,0,0,0,3.69.76,9.4,9.4,0,0,0,8.65-5.7c2.46-5.76,3.14-13.83,3-21.68C145.66,105.38,149.76,88.45,149.76,69.93Z"/>
    </clipPath>
    <clipPath id="clip-path-2">
      <path class="cls-2" d="M71.49,112.49c-1.67,6.53-13.5,9.32-26.44,6.22S23,107.81,24.64,101.28,38.76,88,51.7,91.09,73.15,106,71.49,112.49Z"/>
    </clipPath>
    <clipPath id="clip-path-3">
      <path class="cls-1" d="M-25.1,225.18c-2.5-3-12.41-6.75-14.29-7.45-.33-10.34-1-20.63-2-29.95C-44,159.52-71.47,159-86.06,159s-39.56-.16-43.93,27.43c-.81,7.39-1.87,19.75-2.34,33.54-3.51,1.37-10.52,4.32-12.57,6.8-2.76,3.34-5.69,10.4-1.27,13.83,2.8,2.19,9.42,4.91,13.88,6.61.63,14.35,2.41,27.86,6.21,36.84,6.48,20,16.73,26.18,25.38,24.76s7.33-18.25,7.33-18.25-.1-.69,8-.86,7.9,2.65,7.9,2.65-3.49,16.42,10.16,16.42S-53.19,296.63-46,287.13c3.68-4.89,5.89-21.15,6.59-40.87,4.27-1.57,12.41-4.75,15.6-7.24C-19.41,235.58-22.34,228.53-25.1,225.18Z"/>
    </clipPath>
  </defs>
  <title>monster-02</title>
  <g>
    <path class="cls-3" d="M149.76,69.93C149.76,34.07,116.29,5,75,5S.24,34.07.24,69.93c0,20.52,5,38.53,20.47,50.35.29,5.67,1.13,11.1,2.93,15.3a9.42,9.42,0,0,0,8.65,5.7,9.29,9.29,0,0,0,3.69-.77,9.39,9.39,0,0,0,5.58-10.07,96.12,96.12,0,0,0,10.8,2.47v6.69a9.4,9.4,0,1,0,18.8,0v-4.84c1.26.05,2.53.09,3.84.11q3.68,0,7.12-.06v4.79a9.4,9.4,0,0,0,18.8,0v-6.72a81.2,81.2,0,0,0,13-3.52,12.82,12.82,0,0,1-.69,2.23,9.39,9.39,0,0,0,4.94,12.34,9.28,9.28,0,0,0,3.69.76,9.4,9.4,0,0,0,8.65-5.7c2.46-5.76,3.14-13.83,3-21.68C145.66,105.38,149.76,88.45,149.76,69.93Z"/>
    <g class="cls-4">
      <path class="cls-5" d="M177.28,184.53l-113.14-.62S81.28,155.23,76.92,76.06,47.62-57,47.62-57l129.66,8.42Z"/>
    </g>
    <circle class="cls-6" cx="95.24" cy="57.97" r="27.18"/>
    <circle class="cls-7" cx="95.33" cy="57.62" r="21.7"/>
    <circle class="cls-8" cx="95.33" cy="57.62" r="11.82"/>
    <g>
      <path class="cls-2" d="M71.49,112.49c-1.67,6.53-13.5,9.32-26.44,6.22S23,107.81,24.64,101.28,38.76,88,51.7,91.09,73.15,106,71.49,112.49Z"/>
      <g class="cls-9">
        <path class="cls-7" d="M32.23,102.41l-6.6-3.67a1,1,0,0,1,0-1.78l6.6-3.67a1,1,0,0,1,1.51.89v7.35A1,1,0,0,1,32.23,102.41Z"/>
        <path class="cls-7" d="M40.85,98.39,35.71,93a1,1,0,0,1,.53-1.69l7.45-1.58A1,1,0,0,1,44.86,91l-2.31,7A1,1,0,0,1,40.85,98.39Z"/>
        <path class="cls-7" d="M49.59,97.44l-2.24-7a1,1,0,0,1,1.19-1.3L56,90.76a1,1,0,0,1,.51,1.69l-5.19,5.38A1,1,0,0,1,49.59,97.44Z"/>
        <path class="cls-7" d="M57.71,101.28,58.52,94a1,1,0,0,1,1.59-.72l6.16,4.33a1,1,0,0,1-.18,1.76l-7,3A1,1,0,0,1,57.71,101.28Z"/>
        <path class="cls-7" d="M63.65,108.12l3.42-6.57a1,1,0,0,1,1.74-.1L73,107.59a1,1,0,0,1-.78,1.59l-7.62.42A1,1,0,0,1,63.65,108.12Z"/>
      </g>
    </g>
    <circle class="cls-7" cx="90.52" cy="51.77" r="1.98"/>
  </g>
  <g class="cls-10">
    <g class="cls-11">
      <path d="M-85.18,131.56V235.9l-6.18,99.39s96.75-9.89,99-8.55S7.6,146,7.6,146Z"/>
    </g>
  </g>
</svg>
