<svg id="Layer_1" data-name="Layer 1" xmlns="http://www.w3.org/2000/svg" xmlns:xlink="http://www.w3.org/1999/xlink" viewBox="0 0 150 150">
  <defs>
    <style>
      .cls-1, .cls-8 {
        fill: none;
      }

      .cls-2 {
        fill: #5a6174;
      }

      .cls-3 {
        fill: #eeeae5;
      }

      .cls-4 {
        fill: #7cc7c3;
      }

      .cls-5 {
        fill: #ee787a;
      }

      .cls-6 {
        fill: #79909c;
      }

      .cls-7 {
        fill: #f2a374;
      }

      .cls-8 {
        stroke: #f39b99;
        stroke-linecap: round;
        stroke-linejoin: round;
        stroke-width: 5px;
      }

      .cls-9 {
        opacity: 0.15;
      }

      .cls-10 {
        clip-path: url(#clip-path);
      }
    </style>
    <clipPath id="clip-path">
      <path class="cls-1" d="M105.92,72.72c-1.2-1-5.43-2.24-7.27-2.74-.42-9.39-1-15.78-1-15.78A20.68,20.68,0,0,0,95.48,45a49.05,49.05,0,0,0,7.6-16.21,8.51,8.51,0,1,0-5.35-.07,44,44,0,0,1-5.39,11.66A20.69,20.69,0,0,0,56.24,54.2s-.87,8.52-1.05,31.26,1.05,26.89,1.05,26.89A20.69,20.69,0,0,0,87.91,129.9c.71,2.42,2.36,7.43,3.77,7.67a20.3,20.3,0,0,0,6.13,0c1.57-.31,4.06-1.71,4.06-4.21s1.2-14-4.35-16.57a2.44,2.44,0,0,0-.34-.14,21,21,0,0,0,.45-4.3s1.47-9.74,1.4-26.89c0-1.62,0-3.21,0-4.77a47,47,0,0,0,7.65-2.56C109.09,76.78,107.46,74,105.92,72.72Z"/>
    </clipPath>
  </defs>
  <title>monster-04_sized</title>
  <g>
    <path class="cls-2" d="M92.07,47.89A2.58,2.58,0,0,1,90,43.74c8.49-11.24,8.72-20.36,8.72-20.45a2.59,2.59,0,0,1,5.18,0c0,.44-.17,10.82-9.78,23.53A2.58,2.58,0,0,1,92.07,47.89Z"/>
    <path class="cls-2" d="M58.67,50.47a2.6,2.6,0,0,1-2.07-1c-9.6-12.71-9.77-23.1-9.77-23.53a2.59,2.59,0,0,1,2.58-2.6h0A2.59,2.59,0,0,1,52,25.88c0,.16.26,9.25,8.72,20.45a2.58,2.58,0,0,1-.5,3.62A2.61,2.61,0,0,1,58.67,50.47Z"/>
    <g>
      <circle class="cls-3" cx="49.5" cy="21.81" r="7.02"/>
      <path class="cls-4" d="M49.5,30.31a8.5,8.5,0,1,1,8.5-8.5A8.51,8.51,0,0,1,49.5,30.31Zm0-14A5.54,5.54,0,1,0,55,21.81,5.54,5.54,0,0,0,49.5,16.27Z"/>
    </g>
    <path class="cls-5" d="M56.52,116.79c-5.54,2.59-4.34,14.08-4.34,16.57s2.48,3.9,4.06,4.21a20.3,20.3,0,0,0,6.13,0c1.85-.31,4.13-9,4.13-9S62.07,114.2,56.52,116.79Z"/>
    <path class="cls-4" d="M56.28,71.57s-6.59,1.66-8.13,3S45,78.6,47.44,79.94s10.19,3.22,10.19,3.22Z"/>
    <path class="cls-4" d="M97.78,69.76s6.6,1.65,8.14,3,3.17,4.06.71,5.41-10.2,3.21-10.2,3.21Z"/>
    <path class="cls-5" d="M97.52,116.79c5.55,2.59,4.35,14.08,4.35,16.57s-2.49,3.9-4.06,4.21a20.3,20.3,0,0,1-6.13,0c-1.86-.31-4.14-9-4.14-9S92,114.2,97.52,116.79Z"/>
    <path class="cls-6" d="M76.94,133.05a20.7,20.7,0,0,1-20.7-20.7S55,108.21,55.19,85.46,56.24,54.2,56.24,54.2a20.7,20.7,0,1,1,41.39,0S99,68.32,99,85.46s-1.4,26.89-1.4,26.89A20.69,20.69,0,0,1,76.94,133.05Z"/>
    <path class="cls-7" d="M77.22,124.18a11.08,11.08,0,0,1-11.09-11.09V66.9a11.09,11.09,0,1,1,22.17,0v46.19A11.08,11.08,0,0,1,77.22,124.18Z"/>
    <circle class="cls-2" cx="50.83" cy="21.61" r="3.18"/>
    <g>
      <circle class="cls-3" cx="100.5" cy="20.7" r="7.02"/>
      <path class="cls-4" d="M100.5,29.2a8.5,8.5,0,1,1,8.5-8.5A8.51,8.51,0,0,1,100.5,29.2Zm0-14A5.54,5.54,0,1,0,106,20.7,5.54,5.54,0,0,0,100.5,15.16Z"/>
    </g>
    <circle class="cls-2" cx="98.87" cy="20.87" r="3.18"/>
    <line class="cls-8" x1="67.42" y1="72.07" x2="87.01" y2="72.07"/>
    <line class="cls-8" x1="67.42" y1="81.86" x2="87.01" y2="81.86"/>
    <line class="cls-8" x1="67.42" y1="91.84" x2="87.01" y2="91.84"/>
    <line class="cls-8" x1="67.42" y1="101.45" x2="87.01" y2="101.45"/>
    <line class="cls-8" x1="67.79" y1="111.06" x2="87.38" y2="111.06"/>
    <g class="cls-9">
      <g class="cls-10">
        <path d="M116.39,149.31h-41s7-34.37,7-69.66-7-69.67-7-69.67h41Z"/>
      </g>
    </g>
  </g>
</svg>
