<svg id="Layer_1" data-name="Layer 1" xmlns="http://www.w3.org/2000/svg" xmlns:xlink="http://www.w3.org/1999/xlink" viewBox="0 0 150 150">
  <defs>
    <style>
      .cls-1 {
        fill: none;
      }

      .cls-2 {
        fill: #5a6174;
      }

      .cls-3 {
        clip-path: url(#clip-path);
      }

      .cls-11, .cls-4 {
        opacity: 0.15;
      }

      .cls-5 {
        fill: #7d8ba8;
      }

      .cls-6 {
        fill: #f2a374;
      }

      .cls-7 {
        fill: #7cc7c3;
      }

      .cls-8 {
        fill: #eeeae5;
      }

      .cls-9 {
        fill: #f39b99;
      }

      .cls-10 {
        clip-path: url(#clip-path-2);
      }

      .cls-12 {
        clip-path: url(#clip-path-3);
      }
    </style>
    <clipPath id="clip-path">
      <path class="cls-1" d="M-6.24,69.93C-6.24,34.07-39.71,5-81,5s-74.76,29.07-74.76,64.93c0,20.52,5,38.53,20.47,50.35.29,5.67,1.13,11.1,2.93,15.3a9.42,9.42,0,0,0,8.65,5.7,9.29,9.29,0,0,0,3.69-.77,9.39,9.39,0,0,0,5.58-10.07,96.12,96.12,0,0,0,10.8,2.47v6.69a9.4,9.4,0,0,0,9.4,9.4,9.4,9.4,0,0,0,9.4-9.4v-4.84c1.26.05,2.53.09,3.84.11q3.68,0,7.12-.06v4.79a9.4,9.4,0,0,0,9.4,9.4,9.4,9.4,0,0,0,9.4-9.4v-6.72a81.2,81.2,0,0,0,13-3.52,12.82,12.82,0,0,1-.69,2.23,9.39,9.39,0,0,0,4.94,12.34,9.28,9.28,0,0,0,3.69.76,9.4,9.4,0,0,0,8.65-5.7c2.46-5.76,3.14-13.83,3-21.68C-10.34,105.38-6.24,88.45-6.24,69.93Z"/>
    </clipPath>
    <clipPath id="clip-path-2">
      <path class="cls-2" d="M103.66,107c-.44,7-13.45,12.12-29.07,11.56s-27.91-6.65-27.47-13.6S60.39,88.65,76,89.22,104.1,100,103.66,107Z"/>
    </clipPath>
    <clipPath id="clip-path-3">
      <path class="cls-1" d="M142.88,54c-3-1.05-11.54-.41-15.74,0a65.48,65.48,0,0,0-8.64-17.35,27.24,27.24,0,0,0,4.15-8.79c1.67-15.22-7.85-17.24-7.85-17.24s-3.38,8.7-5.84,12.06a6.36,6.36,0,0,1-2.55,2c-7.73-5.24-17.66-8.47-30.34-8.45-46.64.07-55.9,43.9-55.86,70.62s25.13,48.32,56,48.28a64.33,64.33,0,0,0,14-1.54c1.46,3.52,3.48,7.21,5.68,7.75a79.9,79.9,0,0,0,14.65,2.1c3.84.08,10.07-1.13,10.59-4.78.42-3,3.93-14.26-1.44-21.49a44.31,44.31,0,0,0,12.46-30.5c0-3-.12-6.16-.4-9.47C135,75,145.1,67.83,148.28,64.11,152.1,59.65,146.87,55.44,142.88,54Z"/>
    </clipPath>
  </defs>
  <title>monster-03</title>
  <g class="cls-3">
    <path class="cls-4" d="M21.28,184.53l-113.14-.62s17.14-28.68,12.78-107.85S-108.38-57-108.38-57L21.28-48.61Z"/>
  </g>
  <g>
    <path class="cls-5" d="M124.19,54.26s14.15-1.66,18.15-.24,9.23,5.63,5.4,10.09S130.14,78,130.14,78Z"/>
    <path class="cls-5" d="M25.28,58.18s-14.16-1.66-18.15-.24S-2.1,63.56,1.72,68s17.6,13.87,17.6,13.87Z"/>
    <path class="cls-2" d="M35.5,112.93c-12.74,5.69-7.47,22.13-6.95,25.79s6.77,4.86,10.61,4.78a80.21,80.21,0,0,0,14.68-2.1c4.38-1.08,8-14.53,8-14.53S48.24,107.25,35.5,112.93Z"/>
    <path class="cls-2" d="M113.59,112.93c12.73,5.69,7.47,22.13,6.94,25.79s-6.76,4.86-10.61,4.78a80.21,80.21,0,0,1-14.68-2.1c-4.38-1.08-8-14.53-8-14.53S100.85,107.25,113.59,112.93Z"/>
    <path class="cls-6" d="M31.24,38.89s-3.14-2.22-5.61-10.33C24,13.34,33.5,11.31,33.5,11.31s3.39,8.7,5.85,12.07,7,2.77,7,2.77Z"/>
    <path class="cls-6" d="M116.46,38.2s3.14-2.22,5.61-10.33c1.66-15.22-7.87-17.24-7.87-17.24s-3.39,8.7-5.85,12.06-7,2.77-7,2.77Z"/>
    <path class="cls-7" d="M131.58,86.73c0,26.72-25,48.41-56,48.46S19.47,113.62,19.43,86.91s9.23-70.55,56-70.62S131.53,60,131.58,86.73Z"/>
    <circle class="cls-8" cx="95.62" cy="62.41" r="14.41"/>
    <circle class="cls-9" cx="95.84" cy="62.28" r="8.81"/>
    <circle class="cls-8" cx="91.44" cy="58.86" r="1.96"/>
    <circle class="cls-8" cx="64.86" cy="67.37" r="7.14"/>
    <circle class="cls-9" cx="64.97" cy="67.31" r="4.37"/>
    <circle class="cls-8" cx="62.79" cy="65.61" r="0.97"/>
    <circle class="cls-8" cx="42.11" cy="52.94" r="7.39"/>
    <circle class="cls-9" cx="42.22" cy="52.87" r="4.51"/>
    <circle class="cls-8" cx="39.97" cy="51.12" r="1"/>
    <circle class="cls-8" cx="66.26" cy="38.92" r="14.41"/>
    <circle class="cls-9" cx="66.48" cy="38.79" r="8.81"/>
    <circle class="cls-8" cx="62.08" cy="35.37" r="1.96"/>
    <circle class="cls-8" cx="92.51" cy="37.28" r="7.39"/>
    <circle class="cls-9" cx="92.62" cy="37.21" r="4.51"/>
    <circle class="cls-8" cx="90.36" cy="35.46" r="1"/>
    <g>
      <path class="cls-2" d="M103.66,107c-.44,7-13.45,12.12-29.07,11.56s-27.91-6.65-27.47-13.6S60.39,88.65,76,89.22,104.1,100,103.66,107Z"/>
      <g class="cls-10">
        <path class="cls-8" d="M65.69,99.1l-8-5a.83.83,0,0,1,.15-1.49L67,89.17a.84.84,0,0,1,1.12.91L67,98.5A.84.84,0,0,1,65.69,99.1Z"/>
        <path class="cls-8" d="M85.29,98.8l-.81-8.43a.84.84,0,0,1,1.14-.86l9,3.52a.84.84,0,0,1,.12,1.5l-8.21,4.91A.83.83,0,0,1,85.29,98.8Z"/>
      </g>
    </g>
    <g class="cls-11">
      <g class="cls-12">
        <path d="M162.42,176H77.09S69,126.27,69,79.22,77.09,1.15,77.09,1.15h85.33Z"/>
      </g>
    </g>
  </g>
</svg>
