<svg id="Layer_1" data-name="Layer 1" xmlns="http://www.w3.org/2000/svg" xmlns:xlink="http://www.w3.org/1999/xlink" viewBox="0 0 150 150">
  <defs>
    <style>
      .cls-1 {
        fill: #ee787a;
      }

      .cls-2 {
        fill: none;
      }

      .cls-3 {
        clip-path: url(#clip-path);
      }

      .cls-4 {
        fill: #fcd28a;
      }

      .cls-5 {
        fill: #eeeae5;
      }

      .cls-6 {
        fill: #5a6174;
      }

      .cls-7 {
        clip-path: url(#clip-path-2);
      }

      .cls-8 {
        opacity: 0.15;
      }
    </style>
    <clipPath id="clip-path">
      <path class="cls-1" d="M110.71,101.82,107.9,66.66c0-16.08-14.6-29.11-32.61-29.11s-32.61,13-32.61,29.11l-3.25,36.91a4.38,4.38,0,0,0-1.43,3.2,5,5,0,0,0,5.24,4.68,5,5,0,0,0,5.24-4.68,1.34,1.34,0,0,0,0-.2h0a2.7,2.7,0,0,1,2.81-2.32,2.74,2.74,0,0,1,2.79,2.16h0c0,.12,0,.24,0,.36a5.27,5.27,0,0,0,10.48,0,3.68,3.68,0,0,0-.06-.66h.17A2.93,2.93,0,0,1,70.1,106h.25a3.84,3.84,0,0,0-.09.83,5.27,5.27,0,0,0,10.48,0,4.15,4.15,0,0,0-.16-1.12h.17a3,3,0,0,1,5.9.18,2.37,2.37,0,0,1-.26,1.06,5.28,5.28,0,0,0,10.48-.11,4.16,4.16,0,0,0-.31-1.58l.37,0a2.91,2.91,0,0,1,5.48-.15h.17a3.82,3.82,0,0,0-.06.68,5.27,5.27,0,0,0,10.48,0A4.58,4.58,0,0,0,110.71,101.82Z"/>
    </clipPath>
    <clipPath id="clip-path-2">
      <path class="cls-2" d="M110.71,101.82,107.9,66.66c0-16.08-14.6-29.11-32.61-29.11s-32.61,13-32.61,29.11l-3.25,36.91a4.38,4.38,0,0,0-1.43,3.2,5,5,0,0,0,5.24,4.68,5,5,0,0,0,5.24-4.68,1.34,1.34,0,0,0,0-.2h0a2.7,2.7,0,0,1,2.81-2.32,2.74,2.74,0,0,1,2.79,2.16h0c0,.12,0,.24,0,.36a5.27,5.27,0,0,0,10.48,0,3.68,3.68,0,0,0-.06-.66h.17A2.93,2.93,0,0,1,70.1,106h.25a3.84,3.84,0,0,0-.09.83,5.27,5.27,0,0,0,10.48,0,4.15,4.15,0,0,0-.16-1.12h.17a3,3,0,0,1,5.9.18,2.37,2.37,0,0,1-.26,1.06,5.28,5.28,0,0,0,10.48-.11,4.16,4.16,0,0,0-.31-1.58l.37,0a2.91,2.91,0,0,1,5.48-.15h.17a3.82,3.82,0,0,0-.06.68,5.27,5.27,0,0,0,10.48,0A4.58,4.58,0,0,0,110.71,101.82Z"/>
    </clipPath>
  </defs>
  <title>monster-01_sized</title>
  <g>
    <g>
      <path class="cls-1" d="M110.71,101.82,107.9,66.66c0-16.08-14.6-29.11-32.61-29.11s-32.61,13-32.61,29.11l-3.25,36.91a4.38,4.38,0,0,0-1.43,3.2,5,5,0,0,0,5.24,4.68,5,5,0,0,0,5.24-4.68,1.34,1.34,0,0,0,0-.2h0a2.7,2.7,0,0,1,2.81-2.32,2.74,2.74,0,0,1,2.79,2.16h0c0,.12,0,.24,0,.36a5.27,5.27,0,0,0,10.48,0,3.68,3.68,0,0,0-.06-.66h.17A2.93,2.93,0,0,1,70.1,106h.25a3.84,3.84,0,0,0-.09.83,5.27,5.27,0,0,0,10.48,0,4.15,4.15,0,0,0-.16-1.12h.17a3,3,0,0,1,5.9.18,2.37,2.37,0,0,1-.26,1.06,5.28,5.28,0,0,0,10.48-.11,4.16,4.16,0,0,0-.31-1.58l.37,0a2.91,2.91,0,0,1,5.48-.15h.17a3.82,3.82,0,0,0-.06.68,5.27,5.27,0,0,0,10.48,0A4.58,4.58,0,0,0,110.71,101.82Z"/>
      <g class="cls-3">
        <circle class="cls-4" cx="77.11" cy="89.73" r="1.22"/>
        <circle class="cls-4" cx="82.93" cy="97.25" r="1.22"/>
        <circle class="cls-4" cx="73.33" cy="99.65" r="1.22"/>
        <circle class="cls-4" cx="82.13" cy="74.3" r="1.22"/>
        <circle class="cls-4" cx="84.27" cy="81.77" r="1.22"/>
        <circle class="cls-4" cx="107.75" cy="103.38" r="1.22"/>
        <circle class="cls-4" cx="91.21" cy="105.79" r="1.22"/>
        <circle class="cls-4" cx="80.8" cy="104.72" r="1.22"/>
        <circle class="cls-4" cx="105.35" cy="89.78" r="1.22"/>
        <circle class="cls-4" cx="92.54" cy="92.18" r="1.22"/>
        <circle class="cls-4" cx="100.81" cy="99.65" r="1.22"/>
        <circle class="cls-4" cx="109.08" cy="95.91" r="1.22"/>
        <circle class="cls-4" cx="110.41" cy="107.65" r="1.22"/>
        <circle class="cls-4" cx="98.41" cy="109.25" r="1.22"/>
        <circle class="cls-4" cx="72" cy="106.32" r="1.22"/>
        <circle class="cls-4" cx="102.94" cy="76.44" r="1.22"/>
        <circle class="cls-4" cx="96.01" cy="83.11" r="1.22"/>
        <circle class="cls-4" cx="92.54" cy="71.9" r="1.22"/>
        <circle class="cls-4" cx="109.08" cy="80.71" r="1.22"/>
        <circle class="cls-4" cx="74.4" cy="79.37" r="1.22"/>
        <circle class="cls-4" cx="82.98" cy="49.98" r="1.22"/>
        <circle class="cls-4" cx="88.8" cy="57.49" r="1.22"/>
        <circle class="cls-4" cx="75.46" cy="62.83" r="1.22"/>
        <circle class="cls-4" cx="72" cy="43.35" r="1.22"/>
        <circle class="cls-4" cx="90.14" cy="42.02" r="1.22"/>
        <circle class="cls-4" cx="39.18" cy="101.25" r="1.22"/>
        <circle class="cls-4" cx="97.07" cy="66.03" r="1.22"/>
        <circle class="cls-4" cx="86.67" cy="64.96" r="1.22"/>
        <circle class="cls-4" cx="56.79" cy="99.65" r="1.22"/>
        <circle class="cls-4" cx="98.41" cy="52.43" r="1.22"/>
        <circle class="cls-4" cx="106.68" cy="59.9" r="1.22"/>
        <circle class="cls-4" cx="60.52" cy="105.79" r="1.22"/>
        <circle class="cls-4" cx="41.85" cy="105.52" r="1.22"/>
        <circle class="cls-4" cx="104.28" cy="69.5" r="1.22"/>
        <circle class="cls-4" cx="47.18" cy="97.25" r="1.22"/>
        <circle class="cls-4" cx="58.12" cy="45.76" r="1.22"/>
        <circle class="cls-4" cx="64.26" cy="81.51" r="1.22"/>
        <circle class="cls-4" cx="43.18" cy="83.11" r="1.22"/>
        <circle class="cls-4" cx="60.52" cy="90.58" r="1.22"/>
        <circle class="cls-4" cx="80.27" cy="39.62" r="1.22"/>
        <ellipse class="cls-4" cx="51.98" cy="85.6" rx="0.68" ry="0.06"/>
        <circle class="cls-4" cx="49.58" cy="70.83" r="1.22"/>
        <circle class="cls-4" cx="56.25" cy="57.49" r="1.22"/>
        <circle class="cls-4" cx="59.46" cy="66.57" r="1.22"/>
        <circle class="cls-4" cx="45.85" cy="59.9" r="1.22"/>
        <circle class="cls-4" cx="69.59" cy="69.5" r="1.22"/>
        <circle class="cls-4" cx="57.59" cy="75.64" r="1.22"/>
        <circle class="cls-4" cx="68.26" cy="56.16" r="1.22"/>
      </g>
    </g>
    <circle class="cls-5" cx="65.43" cy="71.67" r="5.06"/>
    <circle class="cls-6" cx="65.43" cy="71.67" r="2.76"/>
    <circle class="cls-5" cx="80.08" cy="71.67" r="5.06"/>
    <circle class="cls-6" cx="80.08" cy="71.67" r="2.76"/>
    <g class="cls-7">
      <path class="cls-8" d="M115.52,125.88H69s6.31-16.83,4.78-51.25S69,25.21,69,25.21h46.52Z"/>
    </g>
  </g>
</svg>
