<svg id="Layer_1" data-name="Layer 1" xmlns="http://www.w3.org/2000/svg" xmlns:xlink="http://www.w3.org/1999/xlink" viewBox="0 0 150 150">
  <defs>
    <style>
      .cls-1 {
        fill: #ee787a;
      }

      .cls-2 {
        fill: none;
      }

      .cls-3 {
        clip-path: url(#clip-path);
      }

      .cls-4 {
        fill: #fcd28a;
      }

      .cls-5 {
        fill: #eeeae5;
      }

      .cls-6 {
        fill: #5a6174;
      }

      .cls-7 {
        clip-path: url(#clip-path-2);
      }

      .cls-8, .cls-9 {
        opacity: 0.15;
      }

      .cls-10 {
        clip-path: url(#clip-path-3);
      }
    </style>
    <clipPath id="clip-path">
      <path class="cls-1" d="M145.53,128.85,139.94,58.9c0-32-29-57.9-64.87-57.9S10.21,26.92,10.21,58.9L3.75,132.32a8.77,8.77,0,0,0-2.84,6.37c0,5.14,4.67,9.31,10.43,9.31s10.42-4.17,10.42-9.31c0-.13,0-.26,0-.4h.05a5.39,5.39,0,0,1,5.59-4.61A5.46,5.46,0,0,1,32.93,138H33c0,.24,0,.48,0,.72,0,5.14,4.67,9.31,10.43,9.31s10.42-4.17,10.42-9.31a8.2,8.2,0,0,0-.11-1.32h.32a5.83,5.83,0,0,1,10.71-.31h.49a8.26,8.26,0,0,0-.18,1.65c0,5.14,4.67,9.31,10.43,9.31s10.43-4.17,10.43-9.31a8.36,8.36,0,0,0-.32-2.24H86a5.63,5.63,0,0,1,5.85-4.88c3.24,0,5.87,2.35,5.87,5.24a4.79,4.79,0,0,1-.5,2.12c.13,5,4.74,9.08,10.41,9.08S118,143.83,118,138.69a8.31,8.31,0,0,0-.63-3.15l.75,0a5.5,5.5,0,0,1,5.49-4A5.57,5.57,0,0,1,129,135.2h.33a8.58,8.58,0,0,0-.12,1.35c0,5.15,4.67,9.31,10.42,9.31s10.43-4.16,10.43-9.31A9.08,9.08,0,0,0,145.53,128.85Z"/>
    </clipPath>
    <clipPath id="clip-path-2">
      <path class="cls-2" d="M145.53,128.85,139.94,58.9c0-32-29-57.9-64.87-57.9S10.21,26.92,10.21,58.9L3.75,132.32a8.77,8.77,0,0,0-2.84,6.37c0,5.14,4.67,9.31,10.43,9.31s10.42-4.17,10.42-9.31c0-.13,0-.26,0-.4h.05a5.39,5.39,0,0,1,5.59-4.61A5.46,5.46,0,0,1,32.93,138H33c0,.24,0,.48,0,.72,0,5.14,4.67,9.31,10.43,9.31s10.42-4.17,10.42-9.31a8.2,8.2,0,0,0-.11-1.32h.32a5.83,5.83,0,0,1,10.71-.31h.49a8.26,8.26,0,0,0-.18,1.65c0,5.14,4.67,9.31,10.43,9.31s10.43-4.17,10.43-9.31a8.36,8.36,0,0,0-.32-2.24H86a5.63,5.63,0,0,1,5.85-4.88c3.24,0,5.87,2.35,5.87,5.24a4.79,4.79,0,0,1-.5,2.12c.13,5,4.74,9.08,10.41,9.08S118,143.83,118,138.69a8.31,8.31,0,0,0-.63-3.15l.75,0a5.5,5.5,0,0,1,5.49-4A5.57,5.57,0,0,1,129,135.2h.33a8.58,8.58,0,0,0-.12,1.35c0,5.15,4.67,9.31,10.42,9.31s10.43-4.16,10.43-9.31A9.08,9.08,0,0,0,145.53,128.85Z"/>
    </clipPath>
    <clipPath id="clip-path-3">
      <path class="cls-2" d="M134.9,225.18c-2.5-3-12.41-6.75-14.29-7.45-.33-10.34-1-20.63-2-29.95C116,159.52,88.53,159,73.94,159S34.38,158.84,30,186.43c-.81,7.39-1.87,19.75-2.34,33.54-3.51,1.37-10.52,4.32-12.57,6.8-2.76,3.34-5.69,10.4-1.27,13.83,2.8,2.19,9.42,4.91,13.88,6.61.63,14.35,2.41,27.86,6.21,36.84,6.48,20,16.73,26.18,25.38,24.76s7.33-18.25,7.33-18.25-.1-.69,8-.86,7.9,2.65,7.9,2.65-3.49,16.42,10.16,16.42,14.09-12.14,21.26-21.64c3.68-4.89,5.89-21.15,6.59-40.87,4.27-1.57,12.41-4.75,15.6-7.24C140.59,235.58,137.66,228.53,134.9,225.18Z"/>
    </clipPath>
  </defs>
  <title>monster-01</title>
  <g>
    <g>
      <path class="cls-1" d="M145.53,128.85,139.94,58.9c0-32-29-57.9-64.87-57.9S10.21,26.92,10.21,58.9L3.75,132.32a8.77,8.77,0,0,0-2.84,6.37c0,5.14,4.67,9.31,10.43,9.31s10.42-4.17,10.42-9.31c0-.13,0-.26,0-.4h.05a5.39,5.39,0,0,1,5.59-4.61A5.46,5.46,0,0,1,32.93,138H33c0,.24,0,.48,0,.72,0,5.14,4.67,9.31,10.43,9.31s10.42-4.17,10.42-9.31a8.2,8.2,0,0,0-.11-1.32h.32a5.83,5.83,0,0,1,10.71-.31h.49a8.26,8.26,0,0,0-.18,1.65c0,5.14,4.67,9.31,10.43,9.31s10.43-4.17,10.43-9.31a8.36,8.36,0,0,0-.32-2.24H86a5.63,5.63,0,0,1,5.85-4.88c3.24,0,5.87,2.35,5.87,5.24a4.79,4.79,0,0,1-.5,2.12c.13,5,4.74,9.08,10.41,9.08S118,143.83,118,138.69a8.31,8.31,0,0,0-.63-3.15l.75,0a5.5,5.5,0,0,1,5.49-4A5.57,5.57,0,0,1,129,135.2h.33a8.58,8.58,0,0,0-.12,1.35c0,5.15,4.67,9.31,10.42,9.31s10.43-4.16,10.43-9.31A9.08,9.08,0,0,0,145.53,128.85Z"/>
      <g class="cls-3">
        <circle class="cls-4" cx="78.7" cy="104.79" r="2.43"/>
        <circle class="cls-4" cx="90.29" cy="119.75" r="2.43"/>
        <circle class="cls-4" cx="71.18" cy="124.52" r="2.43"/>
        <circle class="cls-4" cx="88.7" cy="74.11" r="2.43"/>
        <circle class="cls-4" cx="92.94" cy="88.97" r="2.43"/>
        <circle class="cls-4" cx="139.64" cy="131.95" r="2.43"/>
        <circle class="cls-4" cx="106.74" cy="136.73" r="2.43"/>
        <circle class="cls-4" cx="86.04" cy="134.61" r="2.43"/>
        <circle class="cls-4" cx="134.87" cy="104.89" r="2.43"/>
        <circle class="cls-4" cx="109.39" cy="109.66" r="2.43"/>
        <circle class="cls-4" cx="125.84" cy="124.52" r="2.43"/>
        <circle class="cls-4" cx="142.29" cy="117.09" r="2.43"/>
        <circle class="cls-4" cx="144.95" cy="140.44" r="2.43"/>
        <circle class="cls-4" cx="121.07" cy="143.63" r="2.43"/>
        <circle class="cls-4" cx="68.53" cy="137.79" r="2.43"/>
        <circle class="cls-4" cx="130.09" cy="78.35" r="2.43"/>
        <circle class="cls-4" cx="116.29" cy="91.62" r="2.43"/>
        <circle class="cls-4" cx="109.39" cy="69.33" r="2.43"/>
        <circle class="cls-4" cx="142.29" cy="86.84" r="2.43"/>
        <circle class="cls-4" cx="73.31" cy="84.19" r="2.43"/>
        <circle class="cls-4" cx="90.37" cy="25.72" r="2.43"/>
        <circle class="cls-4" cx="101.96" cy="40.67" r="2.43"/>
        <circle class="cls-4" cx="75.43" cy="51.29" r="2.43"/>
        <circle class="cls-4" cx="68.53" cy="12.55" r="2.43"/>
        <circle class="cls-4" cx="104.62" cy="9.9" r="2.43"/>
        <circle class="cls-4" cx="3.26" cy="127.71" r="2.43"/>
        <circle class="cls-4" cx="118.41" cy="57.66" r="2.43"/>
        <circle class="cls-4" cx="97.72" cy="55.53" r="2.43"/>
        <circle class="cls-4" cx="38.28" cy="124.52" r="2.43"/>
        <circle class="cls-4" cx="121.07" cy="30.59" r="2.43"/>
        <circle class="cls-4" cx="137.52" cy="45.45" r="2.43"/>
        <circle class="cls-4" cx="45.71" cy="136.73" r="2.43"/>
        <circle class="cls-4" cx="8.56" cy="136.2" r="2.43"/>
        <circle class="cls-4" cx="132.74" cy="64.56" r="2.43"/>
        <circle class="cls-4" cx="19.18" cy="119.75" r="2.43"/>
        <circle class="cls-4" cx="40.93" cy="17.32" r="2.43"/>
        <circle class="cls-4" cx="53.14" cy="88.44" r="2.43"/>
        <circle class="cls-4" cx="11.22" cy="91.62" r="2.43"/>
        <circle class="cls-4" cx="45.71" cy="106.48" r="2.43"/>
        <circle class="cls-4" cx="84.98" cy="5.12" r="2.43"/>
        <ellipse class="cls-4" cx="28.72" cy="96.59" rx="1.36" ry="0.12"/>
        <circle class="cls-4" cx="23.95" cy="67.21" r="2.43"/>
        <circle class="cls-4" cx="37.22" cy="40.67" r="2.43"/>
        <circle class="cls-4" cx="43.59" cy="58.72" r="2.43"/>
        <circle class="cls-4" cx="16.52" cy="45.45" r="2.43"/>
        <circle class="cls-4" cx="63.75" cy="64.56" r="2.43"/>
        <circle class="cls-4" cx="39.87" cy="76.76" r="2.43"/>
        <circle class="cls-4" cx="61.1" cy="38.02" r="2.43"/>
      </g>
    </g>
    <circle class="cls-5" cx="55.47" cy="68.87" r="10.07"/>
    <circle class="cls-6" cx="55.47" cy="68.87" r="5.48"/>
    <circle class="cls-5" cx="84.62" cy="68.87" r="10.07"/>
    <circle class="cls-6" cx="84.62" cy="68.87" r="5.48"/>
    <g class="cls-7">
      <path class="cls-8" d="M155.11,176.7H62.57s12.55-33.48,9.51-101.94-9.51-98.3-9.51-98.3h92.54Z"/>
    </g>
  </g>
  <g class="cls-9">
    <g class="cls-10">
      <path d="M74.82,131.56V235.9l-6.18,99.39s96.75-9.89,99-8.55,0-180.79,0-180.79Z"/>
    </g>
  </g>
</svg>
