<svg id="Layer_1" data-name="Layer 1" xmlns="http://www.w3.org/2000/svg" xmlns:xlink="http://www.w3.org/1999/xlink" viewBox="0 0 150 150">
  <defs>
    <style>
      .cls-1, .cls-14 {
        fill: none;
      }

      .cls-2 {
        clip-path: url(#clip-path);
      }

      .cls-3, .cls-4 {
        opacity: 0.15;
      }

      .cls-5 {
        clip-path: url(#clip-path-2);
      }

      .cls-6 {
        fill: #f2a374;
      }

      .cls-7 {
        fill: #7d8ba8;
        stroke: #7d8ba8;
      }

      .cls-14, .cls-7 {
        stroke-linecap: round;
        stroke-linejoin: round;
      }

      .cls-8 {
        fill: #5a6174;
      }

      .cls-9 {
        fill: #fcd28a;
      }

      .cls-10 {
        clip-path: url(#clip-path-3);
      }

      .cls-11 {
        opacity: 0.1;
      }

      .cls-12 {
        fill: #eeeae5;
      }

      .cls-13 {
        fill: #fff;
      }

      .cls-14 {
        stroke: #5a6174;
        stroke-width: 2px;
      }
    </style>
    <clipPath id="clip-path">
      <path class="cls-1" d="M-6.24-89.07C-6.24-124.93-39.71-154-81-154s-74.76,29.07-74.76,64.93c0,20.52,5,38.53,20.47,50.35.29,5.67,1.13,11.1,2.93,15.3a9.42,9.42,0,0,0,8.65,5.7,9.29,9.29,0,0,0,3.69-.77,9.39,9.39,0,0,0,5.58-10.07,96.12,96.12,0,0,0,10.8,2.47v6.69a9.4,9.4,0,0,0,9.4,9.4,9.4,9.4,0,0,0,9.4-9.4v-4.84c1.26,0,2.53.09,3.84.11q3.68,0,7.12-.06v4.79a9.4,9.4,0,0,0,9.4,9.4,9.4,9.4,0,0,0,9.4-9.4v-6.72a81.2,81.2,0,0,0,13-3.52,12.82,12.82,0,0,1-.69,2.23,9.39,9.39,0,0,0,4.94,12.34,9.28,9.28,0,0,0,3.69.76A9.4,9.4,0,0,0-25.51-20c2.46-5.76,3.14-13.83,3-21.68C-10.34-53.62-6.24-70.55-6.24-89.07Z"/>
    </clipPath>
    <clipPath id="clip-path-2">
      <path class="cls-1" d="M142.88-105c-3-1-11.54-.41-15.74,0a65.48,65.48,0,0,0-8.64-17.35,27.24,27.24,0,0,0,4.15-8.79c1.67-15.22-7.85-17.24-7.85-17.24s-3.38,8.7-5.84,12.06a6.36,6.36,0,0,1-2.55,2.05c-7.73-5.24-17.66-8.47-30.34-8.45-46.64.07-55.9,43.9-55.86,70.62s25.13,48.32,56,48.28a64.33,64.33,0,0,0,14-1.54c1.46,3.52,3.48,7.21,5.68,7.75a79.9,79.9,0,0,0,14.65,2.1c3.84.08,10.07-1.13,10.59-4.78.42-3,3.93-14.26-1.44-21.49a44.31,44.31,0,0,0,12.46-30.5c0-3-.12-6.16-.4-9.47C135-84,145.1-91.17,148.28-94.89,152.1-99.35,146.87-103.56,142.88-105Z"/>
    </clipPath>
    <clipPath id="clip-path-3">
      <path class="cls-1" d="M71.45-16s7.74,25.3,7.74,86c2.66,43.87-10.28,109.53-10.28,109.53l119.68-2.28L181-16Z"/>
    </clipPath>
  </defs>
  <title>monster-07</title>
  <g class="cls-2">
    <path class="cls-3" d="M21.28,25.53l-113.14-.62S-74.72-3.77-79.08-82.94-108.38-216-108.38-216l129.66,8.42Z"/>
  </g>
  <g class="cls-4">
    <g class="cls-5">
      <path d="M162.42,17H77.09S69-32.73,69-79.78s8.06-78.07,8.06-78.07h85.33Z"/>
    </g>
  </g>
  <g>
    <path class="cls-6" d="M44.52,26.3s-2.59-1.83-4.63-8.51C38.52,5.24,46.38,3.57,46.38,3.57s2.8,7.17,4.83,10S57,15.8,57,15.8Z"/>
    <path class="cls-6" d="M107.88,24.18s2.58-1.82,4.62-8.51C113.87,3.12,106,1.45,106,1.45s-2.79,7.17-4.82,10-5.82,2.28-5.82,2.28Z"/>
    <path class="cls-7" d="M73.91,142.15c-37.45-5.4-54.69-5.4-60.4-44.08-2.2-28.32,7.65-43.92,16.24-57.84s32.73-27.37,35-29.46-1.35-6.4-.57-6.36S70.9,6.47,70.9,6.47L68.51,1S76.67,3.13,79,5.11,82,10.85,82.83,11s1,.12,1.37-.39-1.27-6.51-.45-7c1.83-.37,11.06,8.26,11.06,8.26l.56-3.39,2,3.28A165.76,165.76,0,0,1,120,38.35c11,16.48,19.66,37.29,19,52.31C139,123.08,111.36,147.54,73.91,142.15Z"/>
    <path class="cls-8" d="M39.49,121.17a39.47,39.47,0,0,0-2.26,13.14c0,7.41,7.39,11.58,12.08,12.5a60.42,60.42,0,0,0,18.22,0c5.51-.92,9-16.95,9-16.95Z"/>
    <path class="cls-8" d="M111.74,124.65a39.26,39.26,0,0,1,.55,13.31c-1,7.36-8.82,10.54-13.58,10.85a60.4,60.4,0,0,1-18.07-2.34c-5.35-1.62-6.73-18-6.73-18Z"/>
    <path class="cls-9" d="M121.62,70.37c7.22,29.26,9.74,70-46.46,69.59-59.66-.44-49.72-47.77-41.9-69.72,0,0,12.7-7.6,41.59-8S121.62,70.37,121.62,70.37Z"/>
    <path class="cls-8" d="M76,141h-.8c-21.4-.15-36-6.34-43.35-18.39-6.08-10-7.12-24.16-3-41.07a120.24,120.24,0,0,1,8.08-22.68,1,1,0,1,1,1.83.92c-.19.38-19.21,38.77-5.15,61.77,7,11.4,21,17.26,41.61,17.41,20.83.15,35.3-5.65,43-17.25,15.24-23-1.11-61.53-1.27-61.92a1,1,0,1,1,1.87-.81,114.73,114.73,0,0,1,6.56,22.78c3,17,1.12,31.16-5.46,41.08C111.87,134.88,97.11,141,76,141Z"/>
    <g class="cls-10">
      <path class="cls-11" d="M119.72,38.26A153.54,153.54,0,0,0,108.31,23.4c.91-1,2.53-3.32,3.9-7.82C113.58,3,105.72,1.36,105.72,1.36s-2.79,7.18-4.83,10a5.26,5.26,0,0,1-2.28,1.77c-1-.94-1.51-1.44-1.51-1.44l-2-3.29-.56,3.39S85.29,3.11,83.46,3.48c-.83.53.86,6.53.44,7s-.58.54-1.37.39S81,7,78.67,5,68.21.92,68.21.92L70.6,6.38s-6-2-6.75-2.06,2.79,4.27.56,6.36c-.76.72-4.09,2.77-8.5,5.71l.82-.68s-3.78.49-5.82-2.28-4.82-9.95-4.82-9.95S38.23,5.15,39.6,17.7a20.85,20.85,0,0,0,3.85,7.76c-5.53,4.46-10.83,9.53-14,14.68C20.87,54.06,11,69.66,13.22,98,16.57,120.71,23.9,130.08,37,135c.53,6.9,7.54,10.8,12.05,11.68a60.42,60.42,0,0,0,18.22,0c1.86-.31,3.48-2.33,4.82-4.88l1.55.22c1.08.16,2.15.28,3.21.39.92,2,2.08,3.49,3.52,3.93a60.48,60.48,0,0,0,18.07,2.34c4.77-.31,12.63-3.49,13.59-10.84.09-.68.15-1.35.2-2,16.36-8.92,26.54-25.65,26.52-45.31C139.38,75.55,130.73,54.74,119.72,38.26Z"/>
    </g>
    <circle class="cls-12" cx="53.74" cy="45.51" r="6.15"/>
    <circle class="cls-8" cx="53.74" cy="45.51" r="3.35"/>
    <polygon class="cls-8" points="45.38 39.74 63.62 41.15 66.72 33.38 43.18 34.05 45.38 39.74"/>
    <circle class="cls-12" cx="97.17" cy="45.51" r="6.15"/>
    <circle class="cls-8" cx="97.17" cy="45.51" r="3.35"/>
    <polygon class="cls-8" points="107.31 41.4 88.05 42.28 84.99 34.42 109.79 35.78 107.31 41.4"/>
    <polygon class="cls-13" points="68.88 53.08 71.28 56.68 73.82 53.08 68.88 53.08"/>
    <polygon class="cls-13" points="79.19 53.08 81.59 56.68 84.13 53.08 79.19 53.08"/>
    <line class="cls-14" x1="83.75" y1="52.94" x2="69.29" y2="52.94"/>
  </g>
</svg>
